<svg width="278" height="53" viewBox="0 0 278 53" fill="none" xmlns="http://www.w3.org/2000/svg">
<path fill-rule="evenodd" clip-rule="evenodd" d="M60.8444 28.2177V24.6905L36.8894 24.6905C36.0498 19.6859 31.6973 15.8724 26.4541 15.8724C20.61 15.8724 15.8725 20.61 15.8725 26.4541C15.8725 32.2982 20.61 37.0357 26.4541 37.0357C31.6973 37.0357 36.0498 33.2223 36.8894 28.2177H48.4992V33.5085H52.0264V28.2177H55.1127V33.5085H58.6399L58.6399 28.2177L60.8444 28.2177ZM26.4541 33.5085C22.558 33.5085 19.3997 30.3501 19.3997 26.4541C19.3997 22.558 22.558 19.3997 26.4541 19.3997C30.3501 19.3997 33.5085 22.558 33.5085 26.4541C33.5085 30.3501 30.3501 33.5085 26.4541 33.5085Z" fill="#7D848B" fill-opacity="0.28"/>
<path d="M26.4541 49.381C13.7919 49.381 3.52721 39.1162 3.52721 26.4541C3.52721 13.7919 13.7919 3.52721 26.4541 3.52721C37.4574 3.52721 46.6503 11.2786 48.8701 21.6187H52.4673C50.1952 9.3176 39.4128 5.66442e-07 26.4541 0C11.8439 -6.38632e-07 6.38631e-07 11.8439 0 26.4541C-6.38631e-07 41.0643 11.8439 52.9082 26.4541 52.9082C37.8069 52.9082 47.4895 45.7567 51.2426 35.713H47.4345C43.8766 43.7632 35.8214 49.381 26.4541 49.381Z" fill="#7D848B" fill-opacity="0.28"/>
<path d="M11.0225 26.6745C11.0225 35.3189 18.0302 42.3265 26.6745 42.3265C33.8681 42.3265 39.9283 37.4737 41.7598 30.8631H45.395C43.4842 39.4411 35.8282 45.8537 26.6745 45.8537C16.0821 45.8537 7.49532 37.2669 7.49533 26.6745C7.49533 16.0821 16.0821 7.49532 26.6745 7.49532C35.5118 7.49532 42.953 13.4722 45.1764 21.6042H41.487C39.3804 15.4483 33.5443 11.0225 26.6745 11.0225C18.0302 11.0225 11.0225 18.0302 11.0225 26.6745Z" fill="#7D848B" fill-opacity="0.28"/>
<path d="M77.1034 29.0705H92.1715L92.5482 30.4158H76.4038L77.1034 29.0705ZM105.033 42.9546C105.177 42.9546 105.248 43.0623 105.248 43.2775C105.248 43.4928 105.177 43.6004 105.033 43.6004C104.351 43.6004 103.257 43.5645 101.75 43.4928C100.244 43.421 99.1494 43.3851 98.4678 43.3851C97.5708 43.3851 96.5125 43.421 95.2927 43.4928C94.0729 43.5645 93.1222 43.6004 92.4405 43.6004C92.297 43.6004 92.2253 43.4928 92.2253 43.2775C92.2253 43.0623 92.297 42.9546 92.4405 42.9546C93.5168 42.9546 94.2882 42.847 94.7546 42.6317C95.2209 42.3806 95.4541 41.986 95.4541 41.4478C95.4541 40.9097 95.1492 39.9948 94.5393 38.7033L83.2921 15.8321L85.4985 12.2265L74.8432 36.2278C74.3768 37.3041 74.1436 38.2728 74.1436 39.1338C74.1436 40.3895 74.592 41.3402 75.4889 41.986C76.3859 42.6317 77.6415 42.9546 79.256 42.9546C79.4353 42.9546 79.525 43.0623 79.525 43.2775C79.525 43.4928 79.4353 43.6004 79.256 43.6004C78.6102 43.6004 77.6774 43.5645 76.4576 43.4928C75.0943 43.421 73.9104 43.3851 72.9058 43.3851C71.9372 43.3851 70.8071 43.421 69.5155 43.4928C68.3675 43.5645 67.4168 43.6004 66.6634 43.6004C66.484 43.6004 66.3943 43.4928 66.3943 43.2775C66.3943 43.0623 66.484 42.9546 66.6634 42.9546C67.6679 42.9546 68.511 42.7573 69.1926 42.3627C69.8743 41.968 70.538 41.2684 71.1838 40.2639C71.8296 39.2235 72.6009 37.6987 73.4978 35.6897L85.0679 9.64343C85.1397 9.5358 85.3011 9.48199 85.5523 9.48199C85.8034 9.48199 85.9469 9.5358 85.9828 9.64343L99.1673 36.2278C100.387 38.8109 101.41 40.5868 102.235 41.5554C103.096 42.4882 104.029 42.9546 105.033 42.9546Z" fill="#7D848B" fill-opacity="0.28"/>
<path d="M134.971 9.37436C138.953 9.37436 142.164 9.93044 144.604 11.0426C144.891 11.1861 145.07 11.3296 145.142 11.4731C145.214 11.5808 145.285 11.8498 145.357 12.2803L146.003 19.3839C146.003 19.4915 145.913 19.5632 145.734 19.5991C145.554 19.635 145.429 19.5812 145.357 19.4377C144.424 16.4958 143.025 14.2535 141.16 12.7109C139.33 11.1682 137.052 10.3968 134.325 10.3968C131.67 10.3968 129.32 11.0605 127.275 12.388C125.23 13.6795 123.634 15.563 122.486 18.0385C121.338 20.4781 120.764 23.3303 120.764 26.595C120.764 29.8239 121.374 32.7119 122.593 35.2591C123.813 37.7705 125.482 39.7257 127.598 41.1249C129.715 42.5241 132.101 43.2237 134.756 43.2237C137.375 43.2237 139.545 42.542 141.267 41.1787C143.025 39.7796 144.568 37.5732 145.895 34.5596C145.931 34.4519 146.039 34.4161 146.218 34.4519C146.397 34.4878 146.487 34.5416 146.487 34.6134L145.788 41.0173C145.716 41.4478 145.644 41.7348 145.572 41.8783C145.501 41.986 145.321 42.1115 145.034 42.255C141.805 43.5825 138.361 44.2462 134.702 44.2462C130.899 44.2462 127.491 43.5286 124.477 42.0936C121.463 40.6227 119.113 38.5777 117.427 35.9587C115.741 33.3039 114.898 30.2723 114.898 26.8641C114.898 23.4917 115.759 20.4781 117.481 17.8232C119.239 15.1684 121.643 13.1055 124.692 11.6346C127.742 10.1278 131.168 9.37436 134.971 9.37436Z" fill="#7D848B" fill-opacity="0.28"/>
<path d="M177.679 14.4329C177.679 13.3566 177.571 12.5674 177.356 12.0651C177.141 11.5269 176.71 11.1502 176.065 10.935C175.419 10.7197 174.432 10.6121 173.105 10.6121C172.997 10.6121 172.943 10.5045 172.943 10.2892C172.943 10.0739 172.997 9.96632 173.105 9.96632L175.688 10.0201C177.41 10.0919 178.935 10.1278 180.262 10.1278C181.231 10.1278 182.54 10.0919 184.191 10.0201L187.15 9.96632C187.258 9.96632 187.312 10.0739 187.312 10.2892C187.312 10.5045 187.258 10.6121 187.15 10.6121C185.859 10.6121 184.908 10.7197 184.298 10.935C183.688 11.1144 183.276 11.4552 183.06 11.9575C182.845 12.4597 182.738 13.249 182.738 14.3253V39.2414C182.738 40.3177 182.845 41.1249 183.06 41.6631C183.276 42.1653 183.688 42.5062 184.298 42.6856C184.908 42.8649 185.859 42.9546 187.15 42.9546C187.258 42.9546 187.312 43.0623 187.312 43.2775C187.312 43.4928 187.258 43.6004 187.15 43.6004C185.931 43.6004 184.944 43.5825 184.191 43.5466L180.262 43.4928L175.688 43.5466C175.042 43.5825 174.181 43.6004 173.105 43.6004C172.997 43.6004 172.943 43.4928 172.943 43.2775C172.943 43.0623 172.997 42.9546 173.105 42.9546C174.468 42.9546 175.455 42.8649 176.065 42.6856C176.71 42.5062 177.141 42.1653 177.356 41.6631C177.571 41.1249 177.679 40.3177 177.679 39.2414V14.4329ZM156.422 25.4111H179.993V26.8103H156.422V25.4111ZM154.054 14.3253C154.054 13.249 153.947 12.4597 153.731 11.9575C153.516 11.4552 153.104 11.1144 152.494 10.935C151.884 10.7197 150.951 10.6121 149.695 10.6121C149.624 10.6121 149.588 10.5045 149.588 10.2892C149.588 10.0739 149.624 9.96632 149.695 9.96632L152.548 10.0201C154.198 10.0919 155.489 10.1278 156.422 10.1278C157.678 10.1278 159.167 10.0919 160.889 10.0201L163.687 9.96632C163.759 9.96632 163.795 10.0739 163.795 10.2892C163.795 10.5045 163.759 10.6121 163.687 10.6121C162.396 10.6121 161.427 10.7197 160.781 10.935C160.171 11.1502 159.741 11.5269 159.49 12.0651C159.274 12.5674 159.167 13.3566 159.167 14.4329V39.2414C159.167 40.3177 159.274 41.1249 159.49 41.6631C159.705 42.1653 160.117 42.5062 160.727 42.6856C161.373 42.8649 162.36 42.9546 163.687 42.9546C163.759 42.9546 163.795 43.0623 163.795 43.2775C163.795 43.4928 163.759 43.6004 163.687 43.6004C162.467 43.6004 161.517 43.5825 160.835 43.5466L156.422 43.4928L152.494 43.5466C151.812 43.5825 150.861 43.6004 149.642 43.6004C149.57 43.6004 149.534 43.4928 149.534 43.2775C149.534 43.0623 149.57 42.9546 149.642 42.9546C150.933 42.9546 151.884 42.8649 152.494 42.6856C153.104 42.5062 153.516 42.1653 153.731 41.6631C153.947 41.1249 154.054 40.3177 154.054 39.2414V14.3253Z" fill="#7D848B" fill-opacity="0.28"/>
<path d="M197.091 29.0705H212.159L212.536 30.4158H196.391L197.091 29.0705ZM225.021 42.9546C225.164 42.9546 225.236 43.0623 225.236 43.2775C225.236 43.4928 225.164 43.6004 225.021 43.6004C224.339 43.6004 223.245 43.5645 221.738 43.4928C220.231 43.421 219.137 43.3851 218.455 43.3851C217.558 43.3851 216.5 43.421 215.28 43.4928C214.06 43.5645 213.11 43.6004 212.428 43.6004C212.284 43.6004 212.213 43.4928 212.213 43.2775C212.213 43.0623 212.284 42.9546 212.428 42.9546C213.504 42.9546 214.276 42.847 214.742 42.6317C215.208 42.3806 215.442 41.986 215.442 41.4478C215.442 40.9097 215.137 39.9948 214.527 38.7033L203.28 15.8321L205.486 12.2265L194.831 36.2278C194.364 37.3041 194.131 38.2728 194.131 39.1338C194.131 40.3895 194.58 41.3402 195.476 41.986C196.373 42.6317 197.629 42.9546 199.243 42.9546C199.423 42.9546 199.513 43.0623 199.513 43.2775C199.513 43.4928 199.423 43.6004 199.243 43.6004C198.598 43.6004 197.665 43.5645 196.445 43.4928C195.082 43.421 193.898 43.3851 192.893 43.3851C191.925 43.3851 190.795 43.421 189.503 43.4928C188.355 43.5645 187.404 43.6004 186.651 43.6004C186.471 43.6004 186.382 43.4928 186.382 43.2775C186.382 43.0623 186.471 42.9546 186.651 42.9546C187.655 42.9546 188.498 42.7573 189.18 42.3627C189.862 41.968 190.525 41.2684 191.171 40.2639C191.817 39.2235 192.588 37.6987 193.485 35.6897L205.055 9.64343C205.127 9.5358 205.289 9.48199 205.54 9.48199C205.791 9.48199 205.934 9.5358 205.97 9.64343L219.155 36.2278C220.375 38.8109 221.397 40.5868 222.222 41.5554C223.083 42.4882 224.016 42.9546 225.021 42.9546Z" fill="#7D848B" fill-opacity="0.28"/>
<path d="M252.519 9.96632C252.626 9.96632 252.68 10.0739 252.68 10.2892C252.68 10.5045 252.626 10.6121 252.519 10.6121C251.263 10.6121 250.097 11.0964 249.021 12.0651C247.944 13.0337 247.065 14.4329 246.384 16.2626L235.89 43.5466C235.854 43.6901 235.657 43.7618 235.298 43.7618C234.939 43.7618 234.742 43.6901 234.706 43.5466L221.091 14.4329C220.445 13.1055 219.799 12.1368 219.154 11.5269C218.508 10.917 217.736 10.6121 216.84 10.6121C216.732 10.6121 216.678 10.5045 216.678 10.2892C216.678 10.0739 216.732 9.96632 216.84 9.96632L218.239 10.0201C219.1 10.0919 219.997 10.1278 220.929 10.1278C223.441 10.1278 225.701 10.0919 227.71 10.0201C228.284 9.98426 229.002 9.96632 229.863 9.96632C229.97 9.96632 230.024 10.0739 230.024 10.2892C230.024 10.5045 229.97 10.6121 229.863 10.6121C228.786 10.6121 227.961 10.8094 227.387 11.2041C226.813 11.5987 226.526 12.1727 226.526 12.9261C226.526 13.5719 226.706 14.2535 227.064 14.9711L237.451 37.4655L235.244 41.1787L244.931 16.0474C245.254 15.1863 245.415 14.415 245.415 13.7333C245.415 12.7288 245.074 11.9575 244.393 11.4193C243.747 10.8812 242.778 10.6121 241.487 10.6121C241.379 10.6121 241.325 10.5045 241.325 10.2892C241.325 10.0739 241.379 9.96632 241.487 9.96632L243.962 10.0201C245.397 10.0919 246.671 10.1278 247.783 10.1278C248.465 10.1278 249.308 10.0919 250.312 10.0201L252.519 9.96632Z" fill="#7D848B" fill-opacity="0.28"/>
<path d="M252.686 43.6004C252.578 43.6004 252.524 43.4928 252.524 43.2775C252.524 43.0623 252.578 42.9546 252.686 42.9546C253.906 42.9546 254.785 42.8649 255.323 42.6856C255.897 42.5062 256.274 42.1653 256.453 41.6631C256.668 41.1249 256.776 40.3177 256.776 39.2414V14.3253C256.776 13.249 256.668 12.4597 256.453 11.9575C256.274 11.4552 255.897 11.1144 255.323 10.935C254.749 10.7197 253.87 10.6121 252.686 10.6121C252.578 10.6121 252.524 10.5045 252.524 10.2892C252.524 10.0739 252.578 9.96632 252.686 9.96632H275.073C275.431 9.96632 275.611 10.1278 275.611 10.4506L275.718 17.4465C275.718 17.5183 275.611 17.5721 275.396 17.608C275.216 17.608 275.109 17.5542 275.073 17.4465C274.212 13.3925 271.736 11.3655 267.646 11.3655H265.44C264.113 11.3655 263.18 11.5987 262.642 12.0651C262.139 12.5315 261.888 13.3208 261.888 14.4329V39.0262C261.888 40.2101 262.103 41.0352 262.534 41.5016C263 41.968 263.808 42.2012 264.956 42.2012H267.592C272.4 42.2012 275.449 39.8872 276.741 35.2591C276.741 35.1874 276.831 35.1515 277.01 35.1515C277.261 35.1515 277.387 35.2053 277.387 35.313C277.028 38.0396 276.849 40.533 276.849 42.7932C276.849 43.0802 276.795 43.2954 276.687 43.439C276.58 43.5466 276.364 43.6004 276.041 43.6004H252.686ZM273.028 31.4383C273.028 28.3529 271.019 26.8103 267.001 26.8103H259.467V25.4111H267.054C271.001 25.4111 272.974 24.0837 272.974 21.4288C272.974 21.3212 273.064 21.2674 273.243 21.2674C273.458 21.2674 273.566 21.3212 273.566 21.4288L273.512 26.1107L273.566 28.64C273.638 29.788 273.674 30.7208 273.674 31.4383C273.674 31.5101 273.566 31.5459 273.351 31.5459C273.135 31.5459 273.028 31.5101 273.028 31.4383Z" fill="#7D848B" fill-opacity="0.28"/>
</svg>
