<svg width="384" height="76" viewBox="0 0 384 76" fill="none" xmlns="http://www.w3.org/2000/svg">
<path fill-rule="evenodd" clip-rule="evenodd" d="M86.7246 40.22L86.7246 35.1925L52.5804 35.1925C51.3837 28.0592 45.1798 22.6238 37.7065 22.6238C29.3766 22.6238 22.6239 29.3764 22.6239 37.7063C22.6239 46.0361 29.3766 52.7888 37.7064 52.7888C45.1798 52.7888 51.3837 47.3533 52.5804 40.22L69.1283 40.22L69.1283 47.7613L74.1558 47.7613L74.1558 40.22L78.5549 40.22L78.5549 47.7613L83.5824 47.7613L83.5824 40.22L86.7246 40.22ZM37.7064 47.7613C32.1532 47.7613 27.6514 43.2595 27.6514 37.7063C27.6514 32.153 32.1532 27.6513 37.7065 27.6513C43.2597 27.6513 47.7615 32.153 47.7615 37.7063C47.7615 43.2595 43.2597 47.7613 37.7064 47.7613Z" fill="url(#paint0_linear_5_813)"/>
<path d="M37.7064 70.385C19.6585 70.385 5.02768 55.7542 5.02768 37.7063C5.02769 19.6583 19.6585 5.0275 37.7065 5.0275C53.39 5.0275 66.4931 16.0759 69.6571 30.8142L74.7843 30.8142C71.5458 13.2808 56.1771 -1.33528e-06 37.7065 -2.14265e-06C16.8819 -3.05292e-06 0.000179737 16.8817 0.000178827 37.7063C0.000177917 58.5309 16.8818 75.4125 37.7064 75.4125C53.8882 75.4125 67.6892 65.2193 73.0387 50.9035L67.6108 50.9035C62.5396 62.3778 51.0581 70.385 37.7064 70.385Z" fill="url(#paint1_linear_5_813)" fill-opacity="0.52"/>
<path d="M15.7111 38.0205C15.7111 50.3417 25.6994 60.33 38.0207 60.33C48.2741 60.33 56.9119 53.413 59.5224 43.9906L64.7039 43.9906C61.9803 56.2172 51.0679 65.3575 38.0207 65.3575C22.9228 65.3575 10.6836 53.1183 10.6836 38.0205C10.6836 22.9226 22.9228 10.6834 38.0207 10.6834C50.6168 10.6834 61.2231 19.2026 64.3922 30.7934L59.1336 30.7934C56.1309 22.0192 47.8125 15.7109 38.0207 15.7109C25.6994 15.7109 15.7111 25.6993 15.7111 38.0205Z" fill="url(#paint2_linear_5_813)" fill-opacity="0.76"/>
<path d="M113.502 45.5315L114.431 43.7448H134.442L134.942 45.5315H113.502ZM151.522 62.1834C151.713 62.1834 151.808 62.3263 151.808 62.6122C151.808 62.8981 151.713 63.041 151.522 63.041C150.093 63.041 148.616 62.9934 147.091 62.8981C145.614 62.8028 144.185 62.7551 142.803 62.7551C141.231 62.7551 139.849 62.8028 138.658 62.8981C137.515 62.9934 136.228 63.041 134.799 63.041C134.608 63.041 134.513 62.8981 134.513 62.6122C134.513 62.3263 134.608 62.1834 134.799 62.1834C136.943 62.1834 138.229 61.8022 138.658 61.0399C139.087 60.2776 138.73 58.7768 137.586 56.5375L122.65 26.1637L125.58 21.3754L111.429 53.25C110.19 56.1563 110.143 58.3718 111.286 59.8964C112.477 61.4211 114.478 62.1834 117.289 62.1834C117.528 62.1834 117.647 62.3263 117.647 62.6122C117.647 62.8981 117.528 63.041 117.289 63.041C115.86 63.041 114.55 62.9934 113.359 62.8981C112.168 62.8028 110.667 62.7551 108.856 62.7551C107.046 62.7551 105.593 62.8028 104.497 62.8981C103.449 62.9934 102.138 63.041 100.566 63.041C100.375 63.041 100.28 62.8981 100.28 62.6122C100.28 62.3263 100.375 62.1834 100.566 62.1834C101.852 62.1834 102.948 61.9214 103.854 61.3973C104.806 60.8732 105.736 59.9203 106.641 58.5386C107.546 57.1092 108.547 55.1319 109.642 52.6067L125.008 17.945C125.103 17.802 125.318 17.7306 125.651 17.7306C125.985 17.7306 126.175 17.802 126.223 17.945L143.732 53.25C144.828 55.5369 145.805 57.3474 146.663 58.6815C147.52 59.9679 148.33 60.8732 149.093 61.3973C149.855 61.9214 150.665 62.1834 151.522 62.1834ZM191.209 17.5876C192.877 17.5876 194.473 17.6829 195.998 17.8735C197.57 18.0164 199.023 18.2547 200.357 18.5882C201.739 18.8741 202.978 19.279 204.073 19.8031C204.455 19.9937 204.693 20.1843 204.788 20.3749C204.931 20.5655 205.026 20.9228 205.074 21.4469L205.932 30.8806C205.932 31.0235 205.812 31.1188 205.574 31.1665C205.336 31.2141 205.169 31.1427 205.074 30.9521C203.835 27.0928 202.001 24.1388 199.571 22.0901C197.141 19.9937 194.092 18.9455 190.423 18.9455C186.897 18.9455 183.777 19.827 181.061 21.5898C178.345 23.305 176.225 25.7826 174.7 29.0225C173.176 32.2147 172.413 36.0263 172.413 40.4573C172.413 43.6971 172.866 46.6749 173.771 49.3907C174.724 52.1065 176.034 54.4411 177.702 56.3945C179.417 58.348 181.394 59.8726 183.634 60.9685C185.873 62.0166 188.327 62.5407 190.995 62.5407C194.568 62.5407 197.498 61.6117 199.785 59.7535C202.072 57.8954 204.073 54.989 205.789 51.0345C205.836 50.8915 205.979 50.8439 206.217 50.8915C206.456 50.9392 206.575 51.0106 206.575 51.1059L205.646 59.6106C205.598 60.1823 205.503 60.5635 205.36 60.7541C205.265 60.897 205.026 61.0637 204.645 61.2543C202.311 62.2072 200.024 62.8743 197.784 63.2554C195.545 63.6842 193.258 63.8986 190.923 63.8986C185.825 63.8986 181.299 62.9457 177.345 61.0399C173.39 59.0865 170.269 56.3707 167.982 52.8926C165.743 49.3669 164.623 45.3409 164.623 40.8146C164.623 37.3842 165.29 34.2396 166.624 31.3809C167.958 28.5222 169.817 26.0685 172.199 24.0197C174.629 21.971 177.464 20.3987 180.704 19.3029C183.943 18.1594 187.445 17.5876 191.209 17.5876ZM247.999 24.3056C247.999 22.9239 247.856 21.8757 247.57 21.161C247.284 20.4463 246.712 19.9461 245.855 19.6602C244.997 19.3743 243.687 19.2314 241.924 19.2314C241.781 19.2314 241.709 19.0885 241.709 18.8026C241.709 18.5167 241.781 18.3738 241.924 18.3738C243.115 18.3738 244.473 18.4214 245.998 18.5167C247.57 18.5644 249.38 18.5882 251.429 18.5882C253.097 18.5882 254.74 18.5644 256.36 18.5167C257.98 18.4214 259.386 18.3738 260.577 18.3738C260.72 18.3738 260.791 18.5167 260.791 18.8026C260.791 19.0885 260.72 19.2314 260.577 19.2314C258.909 19.2314 257.647 19.3743 256.789 19.6602C255.979 19.8984 255.431 20.3749 255.145 21.0896C254.86 21.7566 254.717 22.781 254.717 24.1627V57.2521C254.717 58.6338 254.86 59.682 255.145 60.3967C255.431 61.1114 255.979 61.5878 256.789 61.8261C257.647 62.0643 258.909 62.1834 260.577 62.1834C260.72 62.1834 260.791 62.3263 260.791 62.6122C260.791 62.8981 260.72 63.041 260.577 63.041C259.386 63.041 257.98 63.0172 256.36 62.9695C254.74 62.9219 253.097 62.8981 251.429 62.8981C249.38 62.8981 247.57 62.9219 245.998 62.9695C244.473 63.0172 243.115 63.041 241.924 63.041C241.781 63.041 241.709 62.8981 241.709 62.6122C241.709 62.3263 241.781 62.1834 241.924 62.1834C243.687 62.1834 244.997 62.0643 245.855 61.8261C246.712 61.5878 247.284 61.1114 247.57 60.3967C247.856 59.682 247.999 58.6338 247.999 57.2521V24.3056ZM219.769 40.7431V38.885H251.072V40.7431H219.769ZM216.624 57.2521V24.1627C216.624 22.781 216.481 21.7566 216.196 21.0896C215.91 20.3749 215.362 19.8984 214.552 19.6602C213.742 19.3743 212.503 19.2314 210.835 19.2314C210.74 19.2314 210.693 19.0885 210.693 18.8026C210.693 18.5167 210.74 18.3738 210.835 18.3738C212.074 18.3738 213.456 18.4214 214.981 18.5167C216.505 18.5644 218.101 18.5882 219.769 18.5882C221.818 18.5882 223.628 18.5644 225.2 18.5167C226.773 18.4214 228.178 18.3738 229.417 18.3738C229.512 18.3738 229.56 18.5167 229.56 18.8026C229.56 19.0885 229.512 19.2314 229.417 19.2314C227.702 19.2314 226.415 19.3743 225.558 19.6602C224.7 19.9461 224.128 20.4463 223.843 21.161C223.557 21.8757 223.414 22.9239 223.414 24.3056V57.2521C223.414 58.6338 223.557 59.682 223.843 60.3967C224.128 61.1114 224.7 61.5878 225.558 61.8261C226.463 62.0643 227.749 62.1834 229.417 62.1834C229.512 62.1834 229.56 62.3263 229.56 62.6122C229.56 62.8981 229.512 63.041 229.417 63.041C228.131 63.041 226.701 63.0172 225.129 62.9695C223.604 62.9219 221.818 62.8981 219.769 62.8981C218.101 62.8981 216.481 62.9219 214.909 62.9695C213.337 63.0172 211.955 63.041 210.764 63.041C210.669 63.041 210.621 62.8981 210.621 62.6122C210.621 62.3263 210.669 62.1834 210.764 62.1834C212.432 62.1834 213.67 62.0643 214.48 61.8261C215.29 61.5878 215.838 61.1114 216.124 60.3967C216.458 59.682 216.624 58.6338 216.624 57.2521ZM272.849 45.5315L273.778 43.7448H293.789L294.29 45.5315H272.849ZM310.87 62.1834C311.061 62.1834 311.156 62.3263 311.156 62.6122C311.156 62.8981 311.061 63.041 310.87 63.041C309.441 63.041 307.964 62.9934 306.439 62.8981C304.962 62.8028 303.533 62.7551 302.151 62.7551C300.579 62.7551 299.197 62.8028 298.006 62.8981C296.862 62.9934 295.576 63.041 294.147 63.041C293.956 63.041 293.861 62.8981 293.861 62.6122C293.861 62.3263 293.956 62.1834 294.147 62.1834C296.291 62.1834 297.577 61.8022 298.006 61.0399C298.435 60.2776 298.077 58.7768 296.934 56.5375L281.997 26.1637L284.927 21.3754L270.777 53.25C269.538 56.1563 269.49 58.3718 270.634 59.8964C271.825 61.4211 273.826 62.1834 276.637 62.1834C276.875 62.1834 276.994 62.3263 276.994 62.6122C276.994 62.8981 276.875 63.041 276.637 63.041C275.208 63.041 273.897 62.9934 272.706 62.8981C271.515 62.8028 270.014 62.7551 268.204 62.7551C266.393 62.7551 264.94 62.8028 263.844 62.8981C262.796 62.9934 261.486 63.041 259.914 63.041C259.723 63.041 259.628 62.8981 259.628 62.6122C259.628 62.3263 259.723 62.1834 259.914 62.1834C261.2 62.1834 262.296 61.9214 263.201 61.3973C264.154 60.8732 265.083 59.9203 265.988 58.5386C266.894 57.1092 267.894 55.1319 268.99 52.6067L284.356 17.945C284.451 17.802 284.665 17.7306 284.999 17.7306C285.332 17.7306 285.523 17.802 285.57 17.945L303.08 53.25C304.176 55.5369 305.153 57.3474 306.01 58.6815C306.868 59.9679 307.678 60.8732 308.44 61.3973C309.202 61.9214 310.012 62.1834 310.87 62.1834ZM347.388 18.3738C347.531 18.3738 347.603 18.5167 347.603 18.8026C347.603 19.0885 347.531 19.2314 347.388 19.2314C345.721 19.2314 344.172 19.8746 342.743 21.161C341.313 22.4474 340.146 24.3056 339.241 26.7355L325.305 62.9695C325.257 63.1601 324.995 63.2554 324.519 63.2554C324.09 63.2554 323.828 63.1601 323.732 62.9695L305.651 24.3056C304.841 22.5904 304.007 21.3278 303.15 20.5178C302.292 19.6602 301.244 19.2314 300.005 19.2314C299.862 19.2314 299.791 19.0885 299.791 18.8026C299.791 18.5167 299.862 18.3738 300.005 18.3738C300.625 18.3738 301.125 18.3976 301.506 18.4453C301.935 18.4929 302.435 18.5405 303.007 18.5882C303.626 18.5882 304.436 18.5882 305.437 18.5882C307.724 18.5882 309.582 18.5882 311.011 18.5882C312.488 18.5405 313.703 18.4929 314.656 18.4453C315.657 18.3976 316.538 18.3738 317.3 18.3738C317.443 18.3738 317.515 18.5167 317.515 18.8026C317.515 19.0885 317.443 19.2314 317.3 19.2314C315.299 19.2314 313.941 19.7317 313.227 20.7322C312.56 21.7328 312.679 23.1621 313.584 25.0203L327.377 54.8937L324.447 59.825L337.311 26.4496C338.121 24.3056 338.169 22.5665 337.454 21.2325C336.74 19.8984 335.167 19.2314 332.737 19.2314C332.594 19.2314 332.523 19.0885 332.523 18.8026C332.523 18.5167 332.594 18.3738 332.737 18.3738C334.024 18.3738 335.263 18.4214 336.454 18.5167C337.645 18.5644 339.193 18.5882 341.099 18.5882C342.433 18.5882 343.505 18.5644 344.315 18.5167C345.173 18.4214 346.197 18.3738 347.388 18.3738ZM378.627 63.041H347.61C347.468 63.041 347.396 62.8981 347.396 62.6122C347.396 62.3263 347.468 62.1834 347.61 62.1834C349.183 62.1834 350.35 62.0643 351.112 61.8261C351.875 61.5878 352.375 61.1114 352.613 60.3967C352.899 59.682 353.042 58.6338 353.042 57.2521V24.1627C353.042 22.781 352.899 21.7566 352.613 21.0896C352.375 20.3749 351.875 19.8984 351.112 19.6602C350.35 19.3743 349.183 19.2314 347.61 19.2314C347.468 19.2314 347.396 19.0885 347.396 18.8026C347.396 18.5167 347.468 18.3738 347.61 18.3738H377.341C377.817 18.3738 378.056 18.5882 378.056 19.017L378.199 28.3078C378.199 28.4031 378.079 28.4745 377.841 28.5222C377.603 28.5222 377.436 28.4507 377.341 28.3078C376.817 25.592 375.721 23.5671 374.053 22.233C372.386 20.899 370.194 20.2319 367.478 20.2319H364.548C363.357 20.2319 362.404 20.3749 361.69 20.6607C361.023 20.899 360.546 21.3278 360.26 21.9472C359.974 22.5189 359.831 23.305 359.831 24.3056V56.9663C359.831 57.9668 359.951 58.8006 360.189 59.4676C360.475 60.087 360.903 60.5397 361.475 60.8255C362.047 61.0637 362.857 61.1829 363.905 61.1829H367.407C370.647 61.1829 373.267 60.4205 375.268 58.8959C377.269 57.3236 378.699 55.0128 379.556 51.9635C379.604 51.8206 379.747 51.773 379.985 51.8206C380.271 51.8683 380.414 51.9397 380.414 52.035C380.223 53.3691 380.057 54.9652 379.914 56.8233C379.771 58.6815 379.699 60.3967 379.699 61.969C379.699 62.6837 379.342 63.041 378.627 63.041ZM374.625 46.8893C374.625 44.8883 373.958 43.3636 372.624 42.3154C371.29 41.2672 369.289 40.7431 366.621 40.7431H356.615V38.885H366.692C369.36 38.885 371.338 38.4323 372.624 37.5271C373.911 36.6218 374.554 35.3116 374.554 33.5964C374.554 33.4534 374.673 33.382 374.911 33.382C375.197 33.382 375.34 33.4534 375.34 33.5964C375.34 35.121 375.316 36.3121 375.268 37.1698C375.268 38.0274 375.268 38.9088 375.268 39.8141C375.268 40.9575 375.292 42.101 375.34 43.2445C375.435 44.3403 375.483 45.5553 375.483 46.8893C375.483 46.9846 375.34 47.0323 375.054 47.0323C374.768 47.0323 374.625 46.9846 374.625 46.8893Z" fill="#F2DCB1"/>
<defs>
<linearGradient id="paint0_linear_5_813" x1="49.8667" y1="-1.15302e-07" x2="49.7317" y2="75.4239" gradientUnits="userSpaceOnUse">
<stop stop-color="#EED7A4"/>
<stop offset="0.56261" stop-color="#FFEEC6"/>
<stop offset="1" stop-color="#EAC477"/>
</linearGradient>
<linearGradient id="paint1_linear_5_813" x1="49.8667" y1="-1.15302e-07" x2="49.7317" y2="75.4239" gradientUnits="userSpaceOnUse">
<stop stop-color="#EED7A4"/>
<stop offset="0.56261" stop-color="#FFEEC6"/>
<stop offset="1" stop-color="#EAC477"/>
</linearGradient>
<linearGradient id="paint2_linear_5_813" x1="49.8667" y1="-1.15302e-07" x2="49.7317" y2="75.4239" gradientUnits="userSpaceOnUse">
<stop stop-color="#EED7A4"/>
<stop offset="0.56261" stop-color="#FFEEC6"/>
<stop offset="1" stop-color="#EAC477"/>
</linearGradient>
</defs>
</svg>
