<svg width="370" height="87" viewBox="0 0 370 87" fill="none" xmlns="http://www.w3.org/2000/svg">
<path d="M127.502 67.3491C140.638 67.3491 150.021 53.9001 150.021 35.7596C150.021 16.8894 139.909 3.02341 126.355 3.02341C113.428 3.02341 104.045 15.6383 104.045 33.9873C104.045 52.9618 113.949 67.3491 127.502 67.3491ZM94.0361 35.3426C94.0361 14.9085 107.798 0 126.877 0C145.747 0 159.821 14.4915 159.821 34.5086C159.821 53.5873 146.998 68.6001 129.379 70.2682C138.72 71.7431 149.36 82.6621 163.318 83.8989C164.829 84.0328 166.153 85.0858 166.18 86.6025C166.182 86.7079 166.099 86.7455 165.993 86.7517C160.976 87.0479 156.001 87.12 150.647 86.7406C137.406 85.8023 128.336 73.2916 123.332 70.2682C106.338 68.8086 94.0361 54.7341 94.0361 35.3426Z" fill="#F2DCB1"/>
<path d="M168.663 13.6575C166.473 8.23618 164.492 5.21278 159.905 4.90001L156.569 4.58724L156.465 2.08511H186.49C186.803 2.91915 186.699 3.7532 186.386 4.48298L180.444 5.00426C176.899 5.21278 176.169 6.35958 177.42 9.59151L195.769 57.132L208.593 23.249C214.014 8.75746 212.137 5.52554 206.299 5.10852L200.878 4.58724V2.08511H229.235C229.444 2.91915 229.339 3.7532 229.131 4.58724L223.918 5.21278C220.061 5.6298 219.227 6.67235 214.848 18.4532L194.518 69.3299H191.078L168.663 13.6575Z" fill="#F2DCB1"/>
<path fill-rule="evenodd" clip-rule="evenodd" d="M14.42 8.23618L41.3179 70.2682H45.0711L71.4477 7.92342V47.332C71.4477 50.8767 71.4477 54.5256 71.2392 60.1554C71.2392 64.5342 70.7179 64.9512 66.652 65.3682L61.1264 65.7852C60.7094 66.7235 60.7094 67.6618 60.9179 68.2874H91.6733V66.098L86.8775 65.5767C81.6647 65.0554 80.6222 64.3256 80.6222 54.9426V23.0405C80.6222 19.3915 80.6222 15.8468 80.8307 10.1128C80.8307 5.83831 81.4563 5.31703 85.418 5.00426L90.9435 4.48298C91.4648 3.64895 91.3605 2.60638 91.152 2.08511H76.3616C72.4327 2.08511 68.8825 4.42891 67.3389 8.04195L46.0094 57.9661L24.382 7.99938C22.828 4.40912 19.2897 2.08511 15.3776 2.08511H0.345472L0.449728 4.27448L4.93271 4.6915C9.72847 5.21278 10.6668 6.04682 10.6668 15.3256V32.3827C10.6668 32.4976 10.7599 32.5908 10.8748 32.5908C12.8327 32.5908 14.42 31.0036 14.42 29.0456V8.23618Z" fill="#F2DCB1"/>
<path fill-rule="evenodd" clip-rule="evenodd" d="M14.42 47.1235C14.42 61.7193 15.3583 65.0554 22.1349 65.681L26.4093 66.098L26.5136 68.2874H0.136961C-0.0715497 67.6618 -0.0715497 66.7235 0.345472 65.7852L5.34974 65.3682C9.83272 64.9512 10.4583 61.9278 10.4583 52.3363C10.6668 46.7065 10.6668 51.3922 10.6668 43.6772V43.2441C10.6668 41.2862 12.254 39.6989 14.2119 39.6989C14.3268 39.6989 14.42 39.7921 14.42 39.907V47.1235Z" fill="#F2DCB1"/>
<path d="M232.635 38.8672V28.4601H235.184L237.205 33.5731C237.341 33.905 237.673 34.7798 237.763 35.2775H237.793C237.884 34.7798 238.216 33.905 238.352 33.5731L240.373 28.4601H242.922V38.8672H241.142V32.7738C241.142 32.4118 241.142 31.4917 241.157 31.0543H241.127C241.021 31.3861 240.735 32.1704 240.569 32.5777L238.744 37.0573H236.828L234.988 32.5777C234.822 32.1704 234.536 31.3861 234.43 31.0543H234.4C234.43 31.4917 234.415 32.4118 234.415 32.7738V38.8672H232.635Z" fill="#E8EBED"/>
<path d="M245.244 38.8672L249.377 28.4601H251.428L255.591 38.8672H253.66L252.725 36.4087H248.065L247.145 38.8672H245.244ZM248.653 34.8703H252.137L250.402 30.2851H250.372L248.653 34.8703Z" fill="#E8EBED"/>
<path d="M257.849 38.8672V28.4601H259.689V38.8672H257.849Z" fill="#E8EBED"/>
<path d="M265.957 39.0482C264.433 39.0482 263.031 38.3846 262.156 37.1025L263.332 35.9261C263.981 36.8763 264.871 37.4494 265.912 37.4494C266.937 37.4494 267.661 36.8914 267.661 36.0316C267.661 34.9608 266.892 34.6139 265.61 34.1312C263.921 33.4977 262.835 32.7738 262.835 31.1297C262.835 29.4555 264.237 28.2942 266.198 28.2942C267.676 28.2942 268.747 28.8975 269.456 29.7874L268.355 30.9337C267.752 30.2097 266.967 29.8929 266.198 29.8929C265.308 29.8929 264.75 30.3303 264.75 31.0392C264.75 31.899 265.535 32.2609 266.605 32.638C268.325 33.2564 269.577 34.0105 269.577 35.8808C269.577 37.7812 268.114 39.0482 265.957 39.0482Z" fill="#E8EBED"/>
<path d="M285.532 39.1839L284.31 38.1131C283.436 38.7013 282.365 39.0482 281.173 39.0482C278.021 39.0482 275.759 36.6651 275.759 33.6787C275.759 30.7074 278.036 28.2942 281.203 28.2942C284.371 28.2942 286.618 30.6923 286.618 33.6335C286.618 34.8703 286.226 36.0015 285.532 36.9215L286.678 37.917L285.532 39.1839ZM277.629 33.6636C277.629 35.7451 279.197 37.374 281.219 37.374C281.867 37.374 282.455 37.2081 282.953 36.9215L281.188 35.368L282.32 34.1161L284.175 35.73C284.537 35.1418 284.733 34.4329 284.733 33.6787C284.733 31.6275 283.24 29.9533 281.173 29.9533C279.107 29.9533 277.629 31.5973 277.629 33.6636Z" fill="#E8EBED"/>
<path d="M293.675 39.0482C291.217 39.0482 289.452 37.6304 289.452 35.368V28.4601H291.277V35.2323C291.277 36.469 292.197 37.4343 293.69 37.4343C295.168 37.4343 296.088 36.469 296.088 35.2323V28.4601H297.898V35.368C297.898 37.6153 296.118 39.0482 293.675 39.0482Z" fill="#E8EBED"/>
<path d="M301.222 38.8672V28.4601H308.899V30.0287H303.062V32.7888H307.089V34.3273H303.062V37.3137H308.899V38.8672H301.222Z" fill="#E8EBED"/>
<path d="M318.29 38.8672L314.655 28.4601H316.631L319.27 36.8159H319.301L322.015 28.4601H323.916L320.281 38.8672H318.29Z" fill="#E8EBED"/>
<path d="M326.185 38.8672V28.4601H333.862V30.0287H328.025V32.7888H332.052V34.3273H328.025V37.3137H333.862V38.8672H326.185Z" fill="#E8EBED"/>
<path d="M336.848 38.8672V28.4601H339.156L342.534 34.3725C342.926 35.0814 343.318 35.7903 343.514 36.3031L343.53 36.288C343.469 35.7903 343.469 35.006 343.469 34.1463V28.4601H345.264V38.8672H342.941L339.578 32.9397C339.186 32.2308 338.809 31.537 338.597 31.0241L338.567 31.0392C338.628 31.537 338.643 32.3062 338.643 33.1659V38.8672H336.848Z" fill="#E8EBED"/>
<path d="M348.704 38.8672V28.4601H352.233C355.612 28.4601 357.738 30.3907 357.738 33.6636C357.738 36.9215 355.612 38.8672 352.233 38.8672H348.704ZM350.544 37.3438H352.097C354.496 37.3438 355.883 36.0769 355.883 33.6636C355.883 31.2655 354.496 30.0136 352.097 30.0136H350.544V37.3438Z" fill="#E8EBED"/>
<path d="M359.236 38.8672L363.369 28.4601H365.42L369.583 38.8672H367.652L366.717 36.4087H362.056L361.136 38.8672H359.236ZM362.645 34.8703H366.129L364.394 30.2851H364.364L362.645 34.8703Z" fill="#E8EBED"/>
<path d="M237.567 58.7719C234.505 58.7719 232.137 56.5547 232.137 53.3873C232.137 50.2199 234.505 48.0027 237.567 48.0027C239.679 48.0027 241.474 49.0434 242.348 50.8534L241.64 51.2606C240.946 49.7825 239.392 48.8172 237.552 48.8172C235.048 48.8172 233.073 50.6422 233.073 53.3873C233.073 56.1324 235.033 57.9574 237.582 57.9574C239.377 57.9574 240.901 57.0524 241.655 55.4235L242.394 55.8156C241.549 57.6708 239.724 58.7719 237.567 58.7719Z" fill="#E8EBED"/>
<path d="M250.317 58.7719C247.301 58.7719 245.069 56.4189 245.069 53.4175C245.069 50.4311 247.286 48.0027 250.363 48.0027C253.394 48.0027 255.627 50.3557 255.627 53.3722C255.627 56.4039 253.349 58.7719 250.317 58.7719ZM246.004 53.3722C246.004 55.9966 247.919 57.9574 250.348 57.9574C252.776 57.9574 254.691 56.0117 254.691 53.4024C254.691 50.778 252.761 48.8172 250.332 48.8172C247.904 48.8172 246.004 50.7629 246.004 53.3722Z" fill="#E8EBED"/>
<path d="M258.663 58.5909V48.1837H259.975L262.901 54.609C262.991 54.8051 263.399 55.7251 263.504 56.057H263.519C263.625 55.7251 264.032 54.8051 264.123 54.609L267.049 48.1837H268.361V58.5909H267.471V50.597C267.471 50.3707 267.471 49.6317 267.486 49.2999H267.471C267.335 49.6166 267.064 50.2048 266.943 50.4763L263.957 56.9619H263.067L260.08 50.4763C259.96 50.2048 259.688 49.6166 259.553 49.2999H259.537C259.553 49.6317 259.553 50.3707 259.553 50.597V58.5909H258.663Z" fill="#E8EBED"/>
<path d="M272.065 58.5909V48.1837H274.961C277.299 48.1837 278.596 49.511 278.596 51.3813C278.596 53.2516 277.284 54.5939 274.961 54.5939H273V58.5909H272.065ZM273 53.7945H275.051C276.575 53.7945 277.661 52.8896 277.661 51.3813C277.661 49.873 276.575 48.9831 275.051 48.9831H273V53.7945Z" fill="#E8EBED"/>
<path d="M279.193 58.5909L283.371 48.1837H284.442L288.635 58.5909H287.67L286.403 55.3631H281.426L280.159 58.5909H279.193ZM281.742 54.5638H286.086L283.929 49.0887H283.899L281.742 54.5638Z" fill="#E8EBED"/>
<path d="M291.093 58.5909V48.1837H292.239L297.307 56.0117C297.654 56.5698 297.956 57.0977 298.137 57.4144L298.152 57.3993C298.091 56.9016 298.106 56.253 298.106 55.3933V48.1837H298.996V58.5909H297.85L292.782 50.7629C292.435 50.2048 292.134 49.6769 291.953 49.3602L291.938 49.3753C291.998 49.873 291.983 50.5216 291.983 51.3813V58.5909H291.093Z" fill="#E8EBED"/>
<path d="M305.715 58.5909V54.1565L301.507 48.1837H302.638L306.182 53.327L309.712 48.1837H310.798L306.635 54.1264V58.5909H305.715Z" fill="#E8EBED"/>
</svg>
