<svg width="256" height="53" viewBox="0 0 256 53" fill="none" xmlns="http://www.w3.org/2000/svg">
<path d="M15.849 10.8383C25.4891 10.8383 30.772 18.8989 30.772 32.1336C30.772 44.2246 24.4542 52.2308 14.9231 52.2308C5.1196 52.2308 0 44.1701 0 30.9899C0 18.8445 6.20887 10.8383 15.849 10.8383ZM16.2302 50.3245C21.2409 50.3245 25.2167 46.0219 25.2167 35.7827C25.2167 24.0185 22.0034 12.7445 14.215 12.7445C9.04099 12.7445 5.7187 17.1016 5.7187 27.1774C5.7187 39.2684 8.82313 50.3245 16.2302 50.3245Z" fill="#7D848B" fill-opacity="0.28"/>
<path d="M71.3897 40.3032L72.5879 40.5211L71.2807 50.2156C68.1219 51.8495 64.146 52.2852 61.3139 52.2852C50.8568 52.2852 45.7917 44.7692 45.7917 31.7524C45.7917 19.607 52.3818 10.8383 61.4773 10.8383C63.8737 10.8383 65.6165 11.4374 66.8147 11.4374C68.0674 11.4374 68.8299 10.9472 69.1567 9.74902L70.3549 9.64009L71.662 22.4391L70.4638 22.7659C68.4486 16.4481 64.6906 12.7445 60.2791 12.7445C54.7782 12.7445 51.5104 18.5722 51.5104 28.3756C51.5104 41.2836 55.4318 50.2701 62.0764 50.2701C66.4879 50.2701 69.9192 46.8933 71.3897 40.3032Z" fill="#7D848B" fill-opacity="0.28"/>
<path d="M89.9384 8.65974L89.2849 7.84278L93.8054 1.9607C94.8402 0.599104 95.7661 0 96.9098 0C98.2169 0 99.1973 1.03481 99.1973 2.17855C99.1973 3.26783 98.5982 4.41157 97.2366 5.06513L89.9384 8.65974ZM92.2259 10.8383C101.866 10.8383 107.149 18.8989 107.149 32.1336C107.149 44.2246 100.831 52.2308 91.3 52.2308C81.4965 52.2308 76.3769 44.1701 76.3769 30.9899C76.3769 18.8445 82.5858 10.8383 92.2259 10.8383ZM92.6072 50.3245C97.6178 50.3245 101.594 46.0219 101.594 35.7827C101.594 24.0185 98.3803 12.7445 90.592 12.7445C85.4179 12.7445 82.0956 17.1016 82.0956 27.1774C82.0956 39.2684 85.2001 50.3245 92.6072 50.3245Z" fill="#7D848B" fill-opacity="0.28"/>
<path d="M110.067 11.3829H125.535C135.883 11.3829 141.547 19.0079 141.547 30.9899C141.547 44.0067 134.794 51.6861 124.609 51.6861H110.122V50.6513C114.642 50.3245 114.696 50.2701 114.696 45.5862V17.4829C114.696 12.799 114.588 12.799 110.067 12.4177V11.3829ZM123.302 12.5811C121.287 12.5811 119.979 13.2892 119.979 16.0124V47.0567C119.979 50.1067 122.212 50.4879 124.228 50.4879C131.853 50.4879 135.883 45.7496 135.883 34.3667C135.883 23.6373 132.125 12.5811 123.302 12.5811Z" fill="#7D848B" fill-opacity="0.28"/>
<path d="M148.896 45.5862V17.4829C148.896 12.799 148.787 12.799 144.266 12.4177V11.3829H158.754V12.4177C154.233 12.7445 154.179 12.799 154.179 17.4829V45.5862C154.179 50.2701 154.288 50.2701 158.808 50.6513V51.6861H144.321V50.6513C148.841 50.3245 148.896 50.2701 148.896 45.5862Z" fill="#7D848B" fill-opacity="0.28"/>
<path d="M178.136 10.8383C180.533 10.8383 182.275 11.4374 183.474 11.4374C184.726 11.4374 185.489 10.9472 185.816 9.74902L187.014 9.64009L188.321 22.4391L187.123 22.7659C185.108 16.3936 181.35 12.7445 176.938 12.7445C170.947 12.7445 167.461 18.8445 167.461 29.356C167.461 42.5907 171.165 50.3245 177.374 50.3245C182.058 50.3245 185.108 47.0022 185.108 41.8827V38.6693C185.108 34.2033 184.835 33.9309 180.478 33.6042V32.5693H192.624V33.6042C190.227 33.822 190.227 33.9854 190.227 38.6693V51.6861H189.138C188.484 49.9978 187.177 48.9629 185.652 48.9629C182.983 48.9629 182.82 52.2852 175.903 52.2852C166.862 52.2852 161.743 45.3683 161.743 33.1684C161.743 19.7704 168.333 10.8383 178.136 10.8383Z" fill="#7D848B" fill-opacity="0.28"/>
<path d="M210.887 10.8383C220.527 10.8383 225.81 18.8989 225.81 32.1336C225.81 44.2246 219.492 52.2308 209.961 52.2308C200.157 52.2308 195.038 44.1701 195.038 30.9899C195.038 18.8445 201.247 10.8383 210.887 10.8383ZM211.268 50.3245C216.279 50.3245 220.255 46.0219 220.255 35.7827C220.255 24.0185 217.041 12.7445 209.253 12.7445C204.079 12.7445 200.756 17.1016 200.756 27.1774C200.756 39.2684 203.861 50.3245 211.268 50.3245Z" fill="#7D848B" fill-opacity="0.28"/>
<path d="M255.034 27.7221L254.544 28.5935L246.374 25.2167L245.285 33.9309H244.25L243.161 25.2167L235.046 28.5935L234.556 27.7221L241.745 22.3846L234.501 17.0472L235.046 16.1757L243.161 19.607L244.25 10.8383H245.285L246.429 19.607L254.544 16.1757L255.088 17.0472L247.845 22.3846L255.034 27.7221Z" fill="#7D848B" fill-opacity="0.28"/>
</svg>
