<svg preserveAspectRatio="none" width="100%" height="100%" overflow="visible" style="display: block;" viewBox="0 0 290.466 25.1635" fill="none" xmlns="http://www.w3.org/2000/svg">
<g id="Vector">
<path d="M47.6634 21.2721V3.76604H49.8472V21.2721H47.6634Z" fill="var(--fill-0, #EED7A4)"/>
<path d="M47.6634 21.2721V3.76604H49.8472V21.2721H47.6634Z" fill="var(--fill-1, #9CB2D4)"/>
<path d="M57.3931 21.5148C54.4208 21.5148 52.6253 19.9983 52.3706 17.7418L52.3584 17.6326H54.4694L54.4936 17.7539C54.7484 19.0156 55.6825 19.7557 57.4052 19.7557C59.1158 19.7557 60.1349 19.0399 60.1349 17.8995V17.8874C60.1349 16.9775 59.6617 16.468 58.2302 16.1161L56.2285 15.6309C53.8506 15.0607 52.6981 13.9567 52.6981 12.1369V12.1248C52.6981 9.95322 54.6028 8.41249 57.3324 8.41249C60.0985 8.41249 61.8576 10.026 62.0153 12.1369L62.0274 12.2946H60.0135L60.0014 12.2097C59.8316 10.9844 58.8974 10.1716 57.3324 10.1716C55.8038 10.1716 54.8576 10.9116 54.8576 12.0277V12.0399C54.8576 12.9012 55.4278 13.4957 56.8229 13.8354L58.8246 14.3206C61.3723 14.9394 62.2943 15.9463 62.2943 17.7418V17.7539C62.2943 19.9619 60.2077 21.5148 57.3931 21.5148Z" fill="var(--fill-0, #EED7A4)"/>
<path d="M57.3931 21.5148C54.4208 21.5148 52.6253 19.9983 52.3706 17.7418L52.3584 17.6326H54.4694L54.4936 17.7539C54.7484 19.0156 55.6825 19.7557 57.4052 19.7557C59.1158 19.7557 60.1349 19.0399 60.1349 17.8995V17.8874C60.1349 16.9775 59.6617 16.468 58.2302 16.1161L56.2285 15.6309C53.8506 15.0607 52.6981 13.9567 52.6981 12.1369V12.1248C52.6981 9.95322 54.6028 8.41249 57.3324 8.41249C60.0985 8.41249 61.8576 10.026 62.0153 12.1369L62.0274 12.2946H60.0135L60.0014 12.2097C59.8316 10.9844 58.8974 10.1716 57.3324 10.1716C55.8038 10.1716 54.8576 10.9116 54.8576 12.0277V12.0399C54.8576 12.9012 55.4278 13.4957 56.8229 13.8354L58.8246 14.3206C61.3723 14.9394 62.2943 15.9463 62.2943 17.7418V17.7539C62.2943 19.9619 60.2077 21.5148 57.3931 21.5148Z" fill="var(--fill-1, #9CB2D4)"/>
<path d="M68.9668 21.5148C65.9945 21.5148 64.199 19.9983 63.9442 17.7418L63.9321 17.6326H66.043L66.0673 17.7539C66.322 19.0156 67.2562 19.7557 68.9789 19.7557C70.6895 19.7557 71.7085 19.0399 71.7085 17.8995V17.8874C71.7085 16.9775 71.2354 16.468 69.8039 16.1161L67.8021 15.6309C65.4243 15.0607 64.2718 13.9567 64.2718 12.1369V12.1248C64.2718 9.95322 66.1765 8.41249 68.9061 8.41249C71.6721 8.41249 73.4312 10.026 73.589 12.1369L73.6011 12.2946H71.5872L71.5751 12.2097C71.4052 10.9844 70.4711 10.1716 68.9061 10.1716C67.3775 10.1716 66.4312 10.9116 66.4312 12.0277V12.0399C66.4312 12.9012 67.0014 13.4957 68.3966 13.8354L70.3983 14.3206C72.946 14.9394 73.868 15.9463 73.868 17.7418V17.7539C73.868 19.9619 71.7813 21.5148 68.9668 21.5148Z" fill="var(--fill-0, #EED7A4)"/>
<path d="M68.9668 21.5148C65.9945 21.5148 64.199 19.9983 63.9442 17.7418L63.9321 17.6326H66.043L66.0673 17.7539C66.322 19.0156 67.2562 19.7557 68.9789 19.7557C70.6895 19.7557 71.7085 19.0399 71.7085 17.8995V17.8874C71.7085 16.9775 71.2354 16.468 69.8039 16.1161L67.8021 15.6309C65.4243 15.0607 64.2718 13.9567 64.2718 12.1369V12.1248C64.2718 9.95322 66.1765 8.41249 68.9061 8.41249C71.6721 8.41249 73.4312 10.026 73.589 12.1369L73.6011 12.2946H71.5872L71.5751 12.2097C71.4052 10.9844 70.4711 10.1716 68.9061 10.1716C67.3775 10.1716 66.4312 10.9116 66.4312 12.0277V12.0399C66.4312 12.9012 67.0014 13.4957 68.3966 13.8354L70.3983 14.3206C72.946 14.9394 73.868 15.9463 73.868 17.7418V17.7539C73.868 19.9619 71.7813 21.5148 68.9668 21.5148Z" fill="var(--fill-1, #9CB2D4)"/>
<path d="M81.2926 21.5148C77.7865 21.5148 75.4451 18.9792 75.4451 14.9636V14.9394C75.4451 10.9238 77.7987 8.41249 81.2805 8.41249C84.7623 8.41249 87.128 10.9116 87.128 14.9394V14.9636C87.128 18.9914 84.7744 21.5148 81.2926 21.5148ZM81.3047 19.6465C83.5248 19.6465 84.9685 17.9238 84.9685 14.9636V14.9394C84.9685 11.9792 83.5127 10.2808 81.2805 10.2808C79.0846 10.2808 77.6046 11.9913 77.6046 14.9394V14.9636C77.6046 17.9359 79.0725 19.6465 81.3047 19.6465Z" fill="var(--fill-0, #EED7A4)"/>
<path d="M81.2926 21.5148C77.7865 21.5148 75.4451 18.9792 75.4451 14.9636V14.9394C75.4451 10.9238 77.7987 8.41249 81.2805 8.41249C84.7623 8.41249 87.128 10.9116 87.128 14.9394V14.9636C87.128 18.9914 84.7744 21.5148 81.2926 21.5148ZM81.3047 19.6465C83.5248 19.6465 84.9685 17.9238 84.9685 14.9636V14.9394C84.9685 11.9792 83.5127 10.2808 81.2805 10.2808C79.0846 10.2808 77.6046 11.9913 77.6046 14.9394V14.9636C77.6046 17.9359 79.0725 19.6465 81.3047 19.6465Z" fill="var(--fill-1, #9CB2D4)"/>
<path d="M100.073 7.21145H98.4469L100.521 3.57193H102.729L100.073 7.21145ZM99.5509 21.5148C95.9235 21.5148 93.7398 18.9792 93.7398 15.0122V15C93.7398 11.0936 95.972 8.41249 99.4174 8.41249C102.863 8.41249 104.962 10.9723 104.962 14.7574V15.5338H95.8749C95.9235 18.13 97.355 19.6465 99.5994 19.6465C101.201 19.6465 102.329 18.8458 102.693 17.7661L102.729 17.6569H104.804L104.78 17.7782C104.367 19.8648 102.305 21.5148 99.5509 21.5148ZM99.4053 10.2808C97.5734 10.2808 96.1418 11.5303 95.9113 13.8839H102.814C102.608 11.4333 101.249 10.2808 99.4053 10.2808Z" fill="var(--fill-0, #EED7A4)"/>
<path d="M100.073 7.21145H98.4469L100.521 3.57193H102.729L100.073 7.21145ZM99.5509 21.5148C95.9235 21.5148 93.7398 18.9792 93.7398 15.0122V15C93.7398 11.0936 95.972 8.41249 99.4174 8.41249C102.863 8.41249 104.962 10.9723 104.962 14.7574V15.5338H95.8749C95.9235 18.13 97.355 19.6465 99.5994 19.6465C101.201 19.6465 102.329 18.8458 102.693 17.7661L102.729 17.6569H104.804L104.78 17.7782C104.367 19.8648 102.305 21.5148 99.5509 21.5148ZM99.4053 10.2808C97.5734 10.2808 96.1418 11.5303 95.9113 13.8839H102.814C102.608 11.4333 101.249 10.2808 99.4053 10.2808Z" fill="var(--fill-1, #9CB2D4)"/>
<path d="M116.669 21.5148C113.696 21.5148 111.901 19.9983 111.646 17.7418L111.634 17.6326H113.745L113.769 17.7539C114.024 19.0156 114.958 19.7557 116.681 19.7557C118.391 19.7557 119.41 19.0399 119.41 17.8995V17.8874C119.41 16.9775 118.937 16.468 117.506 16.1161L115.504 15.6309C113.126 15.0607 111.974 13.9567 111.974 12.1369V12.1248C111.974 9.95322 113.878 8.41249 116.608 8.41249C119.374 8.41249 121.133 10.026 121.291 12.1369L121.303 12.2946H119.289L119.277 12.2097C119.107 10.9844 118.173 10.1716 116.608 10.1716C115.079 10.1716 114.133 10.9116 114.133 12.0277V12.0399C114.133 12.9012 114.703 13.4957 116.099 13.8354L118.1 14.3206C120.648 14.9394 121.57 15.9463 121.57 17.7418V17.7539C121.57 19.9619 119.483 21.5148 116.669 21.5148Z" fill="var(--fill-0, #EED7A4)"/>
<path d="M116.669 21.5148C113.696 21.5148 111.901 19.9983 111.646 17.7418L111.634 17.6326H113.745L113.769 17.7539C114.024 19.0156 114.958 19.7557 116.681 19.7557C118.391 19.7557 119.41 19.0399 119.41 17.8995V17.8874C119.41 16.9775 118.937 16.468 117.506 16.1161L115.504 15.6309C113.126 15.0607 111.974 13.9567 111.974 12.1369V12.1248C111.974 9.95322 113.878 8.41249 116.608 8.41249C119.374 8.41249 121.133 10.026 121.291 12.1369L121.303 12.2946H119.289L119.277 12.2097C119.107 10.9844 118.173 10.1716 116.608 10.1716C115.079 10.1716 114.133 10.9116 114.133 12.0277V12.0399C114.133 12.9012 114.703 13.4957 116.099 13.8354L118.1 14.3206C120.648 14.9394 121.57 15.9463 121.57 17.7418V17.7539C121.57 19.9619 119.483 21.5148 116.669 21.5148Z" fill="var(--fill-1, #9CB2D4)"/>
<path d="M128.958 21.5148C125.331 21.5148 123.147 18.9792 123.147 15.0122V15C123.147 11.0936 125.379 8.41249 128.825 8.41249C132.27 8.41249 134.369 10.9723 134.369 14.7574V15.5338H125.282C125.331 18.13 126.762 19.6465 129.007 19.6465C130.608 19.6465 131.736 18.8458 132.1 17.7661L132.137 17.6569H134.211L134.187 17.7782C133.774 19.8648 131.712 21.5148 128.958 21.5148ZM128.813 10.2808C126.981 10.2808 125.549 11.5303 125.319 13.8839H132.222C132.015 11.4333 130.657 10.2808 128.813 10.2808Z" fill="var(--fill-0, #EED7A4)"/>
<path d="M128.958 21.5148C125.331 21.5148 123.147 18.9792 123.147 15.0122V15C123.147 11.0936 125.379 8.41249 128.825 8.41249C132.27 8.41249 134.369 10.9723 134.369 14.7574V15.5338H125.282C125.331 18.13 126.762 19.6465 129.007 19.6465C130.608 19.6465 131.736 18.8458 132.1 17.7661L132.137 17.6569H134.211L134.187 17.7782C133.774 19.8648 131.712 21.5148 128.958 21.5148ZM128.813 10.2808C126.981 10.2808 125.549 11.5303 125.319 13.8839H132.222C132.015 11.4333 130.657 10.2808 128.813 10.2808Z" fill="var(--fill-1, #9CB2D4)"/>
<path d="M136.504 21.2721V8.65512H138.615V10.7903H138.664C139.088 9.3345 140.18 8.41249 141.599 8.41249C141.963 8.41249 142.279 8.47315 142.449 8.49741V10.5477C142.279 10.487 141.83 10.4264 141.32 10.4264C139.683 10.4264 138.615 11.5667 138.615 13.4836V21.2721H136.504Z" fill="var(--fill-0, #EED7A4)"/>
<path d="M136.504 21.2721V8.65512H138.615V10.7903H138.664C139.088 9.3345 140.18 8.41249 141.599 8.41249C141.963 8.41249 142.279 8.47315 142.449 8.49741V10.5477C142.279 10.487 141.83 10.4264 141.32 10.4264C139.683 10.4264 138.615 11.5667 138.615 13.4836V21.2721H136.504Z" fill="var(--fill-1, #9CB2D4)"/>
<path d="M153.573 21.5148C150.807 21.5148 149.206 19.7193 149.206 16.844V8.65512H151.317V16.468C151.317 18.5182 152.275 19.6465 154.216 19.6465C156.206 19.6465 157.504 18.2271 157.504 16.0797V8.65512H159.615V21.2721H157.504V19.4766H157.456C156.776 20.6534 155.49 21.5148 153.573 21.5148Z" fill="var(--fill-0, #EED7A4)"/>
<path d="M153.573 21.5148C150.807 21.5148 149.206 19.7193 149.206 16.844V8.65512H151.317V16.468C151.317 18.5182 152.275 19.6465 154.216 19.6465C156.206 19.6465 157.504 18.2271 157.504 16.0797V8.65512H159.615V21.2721H157.504V19.4766H157.456C156.776 20.6534 155.49 21.5148 153.573 21.5148Z" fill="var(--fill-1, #9CB2D4)"/>
<path d="M162.369 21.2721V8.65512H164.48V10.4991H164.528C165.099 9.24958 166.36 8.41249 167.986 8.41249C169.709 8.41249 170.982 9.29811 171.528 10.8388H171.577C172.281 9.32237 173.761 8.41249 175.532 8.41249C178.031 8.41249 179.645 10.0503 179.645 12.5615V21.2721H177.534V13.0468C177.534 11.312 176.575 10.2808 174.913 10.2808C173.239 10.2808 172.062 11.5303 172.062 13.253V21.2721H169.951V12.8163C169.951 11.2877 168.932 10.2808 167.367 10.2808C165.693 10.2808 164.48 11.6031 164.48 13.3622V21.2721H162.369Z" fill="var(--fill-0, #EED7A4)"/>
<path d="M162.369 21.2721V8.65512H164.48V10.4991H164.528C165.099 9.24958 166.36 8.41249 167.986 8.41249C169.709 8.41249 170.982 9.29811 171.528 10.8388H171.577C172.281 9.32237 173.761 8.41249 175.532 8.41249C178.031 8.41249 179.645 10.0503 179.645 12.5615V21.2721H177.534V13.0468C177.534 11.312 176.575 10.2808 174.913 10.2808C173.239 10.2808 172.062 11.5303 172.062 13.253V21.2721H169.951V12.8163C169.951 11.2877 168.932 10.2808 167.367 10.2808C165.693 10.2808 164.48 11.6031 164.48 13.3622V21.2721H162.369Z" fill="var(--fill-1, #9CB2D4)"/>
<path d="M195.161 21.5633C190.187 21.5633 187.081 18.0815 187.081 12.5251V12.5009C187.081 6.95668 190.199 3.47487 195.161 3.47487C200.111 3.47487 203.216 6.95668 203.216 12.5009V12.5251C203.216 18.0815 200.123 21.5633 195.161 21.5633ZM195.161 19.5494C198.764 19.5494 200.984 16.7955 200.984 12.5251V12.5009C200.984 8.20625 198.728 5.48874 195.161 5.48874C191.582 5.48874 189.314 8.19412 189.314 12.5009V12.5251C189.314 16.8319 191.57 19.5494 195.161 19.5494Z" fill="var(--fill-0, #EED7A4)"/>
<path d="M195.161 21.5633C190.187 21.5633 187.081 18.0815 187.081 12.5251V12.5009C187.081 6.95668 190.199 3.47487 195.161 3.47487C200.111 3.47487 203.216 6.95668 203.216 12.5009V12.5251C203.216 18.0815 200.123 21.5633 195.161 21.5633ZM195.161 19.5494C198.764 19.5494 200.984 16.7955 200.984 12.5251V12.5009C200.984 8.20625 198.728 5.48874 195.161 5.48874C191.582 5.48874 189.314 8.19412 189.314 12.5009V12.5251C189.314 16.8319 191.57 19.5494 195.161 19.5494Z" fill="var(--fill-1, #9CB2D4)"/>
<path d="M209.913 21.5148C207.147 21.5148 205.546 19.7193 205.546 16.844V8.65512H207.657V16.468C207.657 18.5182 208.615 19.6465 210.556 19.6465C212.546 19.6465 213.844 18.2271 213.844 16.0797V8.65512H215.955V21.2721H213.844V19.4766H213.795C213.116 20.6534 211.83 21.5148 209.913 21.5148Z" fill="var(--fill-0, #EED7A4)"/>
<path d="M209.913 21.5148C207.147 21.5148 205.546 19.7193 205.546 16.844V8.65512H207.657V16.468C207.657 18.5182 208.615 19.6465 210.556 19.6465C212.546 19.6465 213.844 18.2271 213.844 16.0797V8.65512H215.955V21.2721H213.844V19.4766H213.795C213.116 20.6534 211.83 21.5148 209.913 21.5148Z" fill="var(--fill-1, #9CB2D4)"/>
<path d="M222.809 21.5148C220.492 21.5148 219.352 20.4714 219.352 18.0572V10.4021H217.508V8.65512H219.352V5.24611H221.535V8.65512H223.937V10.4021H221.535V18.0451C221.535 19.3917 222.13 19.7678 223.258 19.7678C223.513 19.7678 223.756 19.7314 223.937 19.7193V21.4298C223.671 21.4662 223.222 21.5148 222.809 21.5148Z" fill="var(--fill-0, #EED7A4)"/>
<path d="M222.809 21.5148C220.492 21.5148 219.352 20.4714 219.352 18.0572V10.4021H217.508V8.65512H219.352V5.24611H221.535V8.65512H223.937V10.4021H221.535V18.0451C221.535 19.3917 222.13 19.7678 223.258 19.7678C223.513 19.7678 223.756 19.7314 223.937 19.7193V21.4298C223.671 21.4662 223.222 21.5148 222.809 21.5148Z" fill="var(--fill-1, #9CB2D4)"/>
<path d="M230.683 21.5148C227.71 21.5148 225.915 19.9983 225.66 17.7418L225.648 17.6326H227.759L227.783 17.7539C228.038 19.0156 228.972 19.7557 230.695 19.7557C232.405 19.7557 233.424 19.0399 233.424 17.8995V17.8874C233.424 16.9775 232.951 16.468 231.52 16.1161L229.518 15.6309C227.14 15.0607 225.988 13.9567 225.988 12.1369V12.1248C225.988 9.95322 227.892 8.41249 230.622 8.41249C233.388 8.41249 235.147 10.026 235.305 12.1369L235.317 12.2946H233.303L233.291 12.2097C233.121 10.9844 232.187 10.1716 230.622 10.1716C229.093 10.1716 228.147 10.9116 228.147 12.0277V12.0399C228.147 12.9012 228.717 13.4957 230.113 13.8354L232.114 14.3206C234.662 14.9394 235.584 15.9463 235.584 17.7418V17.7539C235.584 19.9619 233.497 21.5148 230.683 21.5148Z" fill="var(--fill-0, #EED7A4)"/>
<path d="M230.683 21.5148C227.71 21.5148 225.915 19.9983 225.66 17.7418L225.648 17.6326H227.759L227.783 17.7539C228.038 19.0156 228.972 19.7557 230.695 19.7557C232.405 19.7557 233.424 19.0399 233.424 17.8995V17.8874C233.424 16.9775 232.951 16.468 231.52 16.1161L229.518 15.6309C227.14 15.0607 225.988 13.9567 225.988 12.1369V12.1248C225.988 9.95322 227.892 8.41249 230.622 8.41249C233.388 8.41249 235.147 10.026 235.305 12.1369L235.317 12.2946H233.303L233.291 12.2097C233.121 10.9844 232.187 10.1716 230.622 10.1716C229.093 10.1716 228.147 10.9116 228.147 12.0277V12.0399C228.147 12.9012 228.717 13.4957 230.113 13.8354L232.114 14.3206C234.662 14.9394 235.584 15.9463 235.584 17.7418V17.7539C235.584 19.9619 233.497 21.5148 230.683 21.5148Z" fill="var(--fill-1, #9CB2D4)"/>
<path d="M238.969 6.51994C238.241 6.51994 237.646 5.92548 237.646 5.19758C237.646 4.45754 238.241 3.87522 238.969 3.87522C239.709 3.87522 240.291 4.45754 240.291 5.19758C240.291 5.92548 239.709 6.51994 238.969 6.51994ZM237.913 21.2721V8.65512H240.024V21.2721H237.913Z" fill="var(--fill-0, #EED7A4)"/>
<path d="M238.969 6.51994C238.241 6.51994 237.646 5.92548 237.646 5.19758C237.646 4.45754 238.241 3.87522 238.969 3.87522C239.709 3.87522 240.291 4.45754 240.291 5.19758C240.291 5.92548 239.709 6.51994 238.969 6.51994ZM237.913 21.2721V8.65512H240.024V21.2721H237.913Z" fill="var(--fill-1, #9CB2D4)"/>
<path d="M247.643 21.5148C244.416 21.5148 242.281 18.9428 242.281 14.9636V14.9515C242.281 10.9723 244.44 8.41249 247.607 8.41249C249.39 8.41249 250.858 9.31024 251.646 10.766H251.695V3.76604H253.806V21.2721H251.695V19.1369H251.646C250.858 20.6049 249.451 21.5148 247.643 21.5148ZM248.055 19.6465C250.191 19.6465 251.707 17.7903 251.707 14.9636V14.9515C251.707 12.1369 250.178 10.2808 248.055 10.2808C245.823 10.2808 244.44 12.0763 244.44 14.9515V14.9636C244.44 17.8631 245.823 19.6465 248.055 19.6465Z" fill="var(--fill-0, #EED7A4)"/>
<path d="M247.643 21.5148C244.416 21.5148 242.281 18.9428 242.281 14.9636V14.9515C242.281 10.9723 244.44 8.41249 247.607 8.41249C249.39 8.41249 250.858 9.31024 251.646 10.766H251.695V3.76604H253.806V21.2721H251.695V19.1369H251.646C250.858 20.6049 249.451 21.5148 247.643 21.5148ZM248.055 19.6465C250.191 19.6465 251.707 17.7903 251.707 14.9636V14.9515C251.707 12.1369 250.178 10.2808 248.055 10.2808C245.823 10.2808 244.44 12.0763 244.44 14.9515V14.9636C244.44 17.8631 245.823 19.6465 248.055 19.6465Z" fill="var(--fill-1, #9CB2D4)"/>
<path d="M261.849 21.5148C258.222 21.5148 256.038 18.9792 256.038 15.0122V15C256.038 11.0936 258.27 8.41249 261.716 8.41249C265.161 8.41249 267.26 10.9723 267.26 14.7574V15.5338H258.173C258.222 18.13 259.653 19.6465 261.898 19.6465C263.499 19.6465 264.627 18.8458 264.991 17.7661L265.028 17.6569H267.102L267.078 17.7782C266.665 19.8648 264.603 21.5148 261.849 21.5148ZM261.704 10.2808C259.872 10.2808 258.44 11.5303 258.21 13.8839H265.113C264.906 11.4333 263.548 10.2808 261.704 10.2808Z" fill="var(--fill-0, #EED7A4)"/>
<path d="M261.849 21.5148C258.222 21.5148 256.038 18.9792 256.038 15.0122V15C256.038 11.0936 258.27 8.41249 261.716 8.41249C265.161 8.41249 267.26 10.9723 267.26 14.7574V15.5338H258.173C258.222 18.13 259.653 19.6465 261.898 19.6465C263.499 19.6465 264.627 18.8458 264.991 17.7661L265.028 17.6569H267.102L267.078 17.7782C266.665 19.8648 264.603 21.5148 261.849 21.5148ZM261.704 10.2808C259.872 10.2808 258.44 11.5303 258.21 13.8839H265.113C264.906 11.4333 263.548 10.2808 261.704 10.2808Z" fill="var(--fill-1, #9CB2D4)"/>
<path d="M269.395 21.2721V8.65512H271.506V10.7903H271.555C271.979 9.3345 273.071 8.41249 274.49 8.41249C274.854 8.41249 275.17 8.47315 275.34 8.49741V10.5477C275.17 10.487 274.721 10.4264 274.211 10.4264C272.574 10.4264 271.506 11.5667 271.506 13.4836V21.2721H269.395Z" fill="var(--fill-0, #EED7A4)"/>
<path d="M269.395 21.2721V8.65512H271.506V10.7903H271.555C271.979 9.3345 273.071 8.41249 274.49 8.41249C274.854 8.41249 275.17 8.47315 275.34 8.49741V10.5477C275.17 10.487 274.721 10.4264 274.211 10.4264C272.574 10.4264 271.506 11.5667 271.506 13.4836V21.2721H269.395Z" fill="var(--fill-1, #9CB2D4)"/>
<path d="M290.466 6.28545V6.35751C290.466 9.87256 287.703 12.643 284.18 12.643H284.116C280.593 12.643 277.831 9.87256 277.831 6.35751V6.28545C277.831 2.7704 280.593 0 284.116 0H284.18C287.703 0 290.466 2.7704 290.466 6.28545ZM289.385 6.28545C289.385 3.37092 287.095 1.08894 284.18 1.08894H284.116C281.202 1.08894 278.912 3.37092 278.912 6.28545V6.35751C278.912 9.27204 281.202 11.554 284.116 11.554H284.18C287.095 11.554 289.385 9.27204 289.385 6.35751V6.28545ZM284.252 9.11991C282.571 9.11991 281.522 8.08701 281.522 6.32548V6.31748C281.522 4.55595 282.579 3.52305 284.252 3.52305C285.686 3.52305 286.686 4.44385 286.767 5.66091L286.775 5.69294H285.509L285.493 5.64489C285.381 5.08441 284.941 4.68406 284.252 4.68406C283.396 4.68406 282.859 5.29259 282.859 6.31748C282.859 7.35838 283.396 7.96691 284.26 7.96691C284.917 7.96691 285.373 7.59058 285.501 6.99006L285.509 6.95803H286.775L286.767 6.99006C286.686 8.21512 285.67 9.11991 284.252 9.11991Z" fill="var(--fill-0, #EED7A4)"/>
<path d="M290.466 6.28545V6.35751C290.466 9.87256 287.703 12.643 284.18 12.643H284.116C280.593 12.643 277.831 9.87256 277.831 6.35751V6.28545C277.831 2.7704 280.593 0 284.116 0H284.18C287.703 0 290.466 2.7704 290.466 6.28545ZM289.385 6.28545C289.385 3.37092 287.095 1.08894 284.18 1.08894H284.116C281.202 1.08894 278.912 3.37092 278.912 6.28545V6.35751C278.912 9.27204 281.202 11.554 284.116 11.554H284.18C287.095 11.554 289.385 9.27204 289.385 6.35751V6.28545ZM284.252 9.11991C282.571 9.11991 281.522 8.08701 281.522 6.32548V6.31748C281.522 4.55595 282.579 3.52305 284.252 3.52305C285.686 3.52305 286.686 4.44385 286.767 5.66091L286.775 5.69294H285.509L285.493 5.64489C285.381 5.08441 284.941 4.68406 284.252 4.68406C283.396 4.68406 282.859 5.29259 282.859 6.31748C282.859 7.35838 283.396 7.96691 284.26 7.96691C284.917 7.96691 285.373 7.59058 285.501 6.99006L285.509 6.95803H286.775L286.767 6.99006C286.686 8.21512 285.67 9.11991 284.252 9.11991Z" fill="var(--fill-1, #9CB2D4)"/>
<path d="M24.0176 13.2093C24.0176 19.8114 18.6411 25.1635 12.0088 25.1635C5.37652 25.1635 0 19.8114 0 13.2093C0 6.60716 5.37652 1.25507 12.0088 1.25507C18.6411 1.25507 24.0176 6.60716 24.0176 13.2093Z" fill="var(--fill-0, #EED7A4)"/>
<path d="M24.0176 13.2093C24.0176 19.8114 18.6411 25.1635 12.0088 25.1635C5.37652 25.1635 0 19.8114 0 13.2093C0 6.60716 5.37652 1.25507 12.0088 1.25507C18.6411 1.25507 24.0176 6.60716 24.0176 13.2093Z" fill="var(--fill-1, #9CB2D4)"/>
<path fill-rule="evenodd" clip-rule="evenodd" d="M24.0176 25.1635C30.6499 25.1635 36.0264 19.8114 36.0264 13.2093C36.0264 6.60716 30.6499 1.25507 24.0176 1.25507V25.1635Z" fill="var(--fill-0, #EED7A4)"/>
<path fill-rule="evenodd" clip-rule="evenodd" d="M24.0176 25.1635C30.6499 25.1635 36.0264 19.8114 36.0264 13.2093C36.0264 6.60716 30.6499 1.25507 24.0176 1.25507V25.1635Z" fill="var(--fill-1, #9CB2D4)"/>
</g>
</svg>
