<svg width="64" height="64" viewBox="0 0 64 64" fill="none" xmlns="http://www.w3.org/2000/svg">
<g filter="url(#filter0_d_5_1029)">
<path d="M32 34.9998L29 31.9998M32 34.9998C33.3968 34.4685 34.7369 33.7985 36 32.9998M32 34.9998V39.9998C32 39.9998 35.03 39.4498 36 37.9998C37.08 36.3798 36 32.9998 36 32.9998M29 31.9998C29.5321 30.6192 30.2022 29.2958 31 28.0498C32.1652 26.1867 33.7876 24.6528 35.713 23.5939C37.6384 22.5349 39.8027 21.9861 42 21.9998C42 24.7198 41.22 29.4998 36 32.9998M29 31.9998H24C24 31.9998 24.55 28.9698 26 27.9998C27.62 26.9198 31 27.9998 31 27.9998M24.5 36.4998C23 37.7598 22.5 41.4998 22.5 41.4998C22.5 41.4998 26.24 40.9998 27.5 39.4998C28.21 38.6598 28.2 37.3698 27.41 36.5898C27.0213 36.2188 26.5093 36.0044 25.9722 35.9878C25.4352 35.9712 24.9109 36.1535 24.5 36.4998Z" stroke="#F2DCB1" stroke-width="2" stroke-linecap="round" stroke-linejoin="round"/>
</g>
<defs>
<filter id="filter0_d_5_1029" x="-2.5" y="-2" width="69" height="68" filterUnits="userSpaceOnUse" color-interpolation-filters="sRGB">
<feFlood flood-opacity="0" result="BackgroundImageFix"/>
<feColorMatrix in="SourceAlpha" type="matrix" values="0 0 0 0 0 0 0 0 0 0 0 0 0 0 0 0 0 0 127 0" result="hardAlpha"/>
<feOffset/>
<feGaussianBlur stdDeviation="10"/>
<feColorMatrix type="matrix" values="0 0 0 0 0.94902 0 0 0 0 0.862745 0 0 0 0 0.694118 0 0 0 0.52 0"/>
<feBlend mode="normal" in2="BackgroundImageFix" result="effect1_dropShadow_5_1029"/>
<feBlend mode="normal" in="SourceGraphic" in2="effect1_dropShadow_5_1029" result="shape"/>
</filter>
</defs>
</svg>
