<svg width="299" height="68" viewBox="0 0 299 68" fill="none" xmlns="http://www.w3.org/2000/svg">
<path d="M178.839 46.5041C173.918 46.5041 170.677 44.1848 170.424 40.3343L170.41 40.1113H174.082L174.111 40.2897C174.394 42.1332 176.282 43.278 178.973 43.278C181.679 43.278 183.373 42.0737 183.373 40.2303V40.2154C183.373 38.6098 182.258 37.7475 179.493 37.1677L177.189 36.6919C172.967 35.8148 170.885 33.8524 170.885 30.656V30.6411C170.9 26.8649 174.215 24.3078 178.839 24.3078C183.522 24.3078 186.585 26.7757 186.808 30.4478L186.823 30.7006H183.15L183.121 30.5222C182.868 28.6489 181.218 27.5339 178.809 27.5339C176.297 27.5488 174.736 28.7233 174.736 30.433V30.4478C174.736 31.9643 175.91 32.8563 178.497 33.3915L180.816 33.8672C185.276 34.789 187.224 36.6027 187.224 39.9478V39.9626C187.224 43.9618 184.072 46.5041 178.839 46.5041Z" fill="#1A3667"/>
<path d="M200.648 46.5041C194.478 46.5041 190.583 42.2521 190.583 35.3985V35.3836C190.583 28.53 194.493 24.3078 200.648 24.3078C205.583 24.3078 209.211 27.3853 209.776 31.7561L209.791 31.9048H206.029L205.955 31.6223C205.331 29.1693 203.443 27.638 200.648 27.638C196.901 27.638 194.508 30.6262 194.508 35.3836V35.3985C194.508 40.1708 196.916 43.1739 200.648 43.1739C203.383 43.1739 205.301 41.7021 206 39.0558L206.044 38.9071H209.806L209.776 39.0558C209.226 43.4564 205.583 46.5041 200.648 46.5041Z" fill="#1A3667"/>
<path d="M213.937 46.1324V24.6795H217.773V33.5996H228.21V24.6795H232.03V46.1324H228.21V36.8257H217.773V46.1324H213.937Z" fill="#1A3667"/>
<path d="M246.495 46.5041C240.221 46.5041 236.311 42.2373 236.311 35.4134V35.3836C236.311 28.5746 240.251 24.3078 246.495 24.3078C252.754 24.3078 256.664 28.5746 256.664 35.3836V35.4134C256.664 42.2373 252.769 46.5041 246.495 46.5041ZM246.495 43.1739C250.375 43.1739 252.768 40.141 252.768 35.4134V35.3836C252.768 30.6262 250.33 27.638 246.495 27.638C242.674 27.638 240.221 30.6114 240.221 35.3836V35.4134C240.221 40.1856 242.659 43.1739 246.495 43.1739Z" fill="#1A3667"/>
<path d="M270.4 46.5041C264.126 46.5041 260.216 42.2373 260.216 35.4134V35.3836C260.216 28.5746 264.155 24.3078 270.4 24.3078C276.659 24.3078 280.568 28.5746 280.568 35.3836V35.4134C280.568 42.2373 276.673 46.5041 270.4 46.5041ZM270.4 43.1739C274.28 43.1739 276.673 40.141 276.673 35.4134V35.3836C276.673 30.6262 274.235 27.638 270.4 27.638C266.579 27.638 264.126 30.6114 264.126 35.3836V35.4134C264.126 40.1856 266.564 43.1739 270.4 43.1739Z" fill="#1A3667"/>
<path d="M284.849 46.1324V24.6795H288.685V42.9063H298.422V46.1324H284.849Z" fill="#1A3667"/>
<path d="M67.6609 33.6767C67.6609 52.2758 52.5145 67.3533 33.8304 67.3533C15.1464 67.3533 0 52.2758 0 33.6767C0 15.0776 15.1464 0 33.8304 0C52.5145 0 67.6609 15.0776 67.6609 33.6767Z" fill="#1A3667"/>
<path fill-rule="evenodd" clip-rule="evenodd" d="M67.6609 67.3533C86.345 67.3533 101.491 52.2758 101.491 33.6767C101.491 15.0776 86.345 0 67.6609 0V67.3533Z" fill="#1A3667"/>
</svg>
