<svg width="366" height="78" viewBox="0 0 366 78" fill="none" xmlns="http://www.w3.org/2000/svg">
<path d="M34.8047 77.9187C13.3784 77.9187 0 62.9203 0 38.9855V38.881C0 14.9984 13.4307 0 34.8047 0C56.1266 0 69.505 14.9984 69.505 38.881V38.9855C69.505 62.9203 56.1788 77.9187 34.8047 77.9187ZM34.8047 69.2437C50.3258 69.2437 59.8893 57.3808 59.8893 38.9855V38.881C59.8893 20.3812 50.169 8.67506 34.8047 8.67506C19.3882 8.67506 9.61573 20.3289 9.61573 38.881V38.9855C9.61573 57.5376 19.336 69.2437 34.8047 69.2437Z" fill="#1A3667"/>
<path d="M96.2116 77.7097C84.2965 77.7097 77.3982 69.9753 77.3982 57.5898V22.3148H86.4914V55.9698C86.4914 64.8016 90.6199 69.6618 98.9814 69.6618C107.552 69.6618 113.144 63.5474 113.144 54.2975V22.3148H122.237V76.6645H113.144V68.9301H112.935C110.008 73.9993 104.469 77.7097 96.2116 77.7097Z" fill="#1A3667"/>
<path d="M149.623 77.7097C139.641 77.7097 134.729 73.2154 134.729 62.8158V29.8401H126.785V22.3148H134.729V7.62987H144.136V22.3148H154.483V29.8401H144.136V62.7635C144.136 68.5643 146.696 70.1843 151.556 70.1843C152.654 70.1843 153.699 70.0276 154.483 69.9753V77.3439C153.333 77.5007 151.4 77.7097 149.623 77.7097Z" fill="#1A3667"/>
<path d="M181.399 77.7097C168.595 77.7097 160.861 71.1773 159.763 61.457L159.711 60.9867H168.804L168.909 61.5093C170.006 66.9443 174.03 70.1321 181.451 70.1321C188.819 70.1321 193.209 67.0488 193.209 62.1364V62.0841C193.209 58.1647 191.171 55.9698 185.004 54.4543L176.382 52.3639C166.139 49.9077 161.174 45.1521 161.174 37.3132V37.2609C161.174 27.9065 169.379 21.2696 181.137 21.2696C193.052 21.2696 200.63 28.2201 201.309 37.3132L201.362 37.9926H192.687L192.634 37.6268C191.903 32.3486 187.879 28.8472 181.137 28.8472C174.553 28.8472 170.476 32.035 170.476 36.8429V36.8951C170.476 40.6055 172.933 43.1662 178.942 44.6295L187.565 46.7199C198.54 49.3851 202.511 53.7226 202.511 61.457V61.5093C202.511 71.0205 193.523 77.7097 181.399 77.7097Z" fill="#1A3667"/>
<path d="M214.951 13.1171C211.816 13.1171 209.255 10.5564 209.255 7.42083C209.255 4.23301 211.816 1.72456 214.951 1.72456C218.139 1.72456 220.647 4.23301 220.647 7.42083C220.647 10.5564 218.139 13.1171 214.951 13.1171ZM210.405 76.6645V22.3148H219.498V76.6645H210.405Z" fill="#1A3667"/>
<path d="M250.176 77.7097C236.275 77.7097 227.077 66.6307 227.077 49.4896V49.4374C227.077 32.2963 236.38 21.2696 250.019 21.2696C257.701 21.2696 264.025 25.1368 267.422 31.4079H267.631V1.25423H276.724V76.6645H267.631V67.4669H267.422C264.025 73.7902 257.963 77.7097 250.176 77.7097ZM251.953 69.6618C261.151 69.6618 267.683 61.6661 267.683 49.4896V49.4374C267.683 37.3132 261.098 29.3175 251.953 29.3175C242.337 29.3175 236.38 37.0519 236.38 49.4374V49.4896C236.38 61.9796 242.337 69.6618 251.953 69.6618Z" fill="#1A3667"/>
<path d="M309.231 77.7097C293.606 77.7097 284.199 66.7875 284.199 49.6987V49.6464C284.199 32.8189 293.815 21.2696 308.656 21.2696C323.498 21.2696 332.539 32.2963 332.539 48.6012V51.9458H293.397C293.606 63.1293 299.772 69.6618 309.44 69.6618C316.339 69.6618 321.199 66.2126 322.766 61.5616L322.923 61.0912H331.86L331.755 61.6138C329.978 70.6024 321.094 77.7097 309.231 77.7097ZM308.604 29.3175C300.713 29.3175 294.546 34.7002 293.553 44.8386H323.289C322.401 34.2822 316.548 29.3175 308.604 29.3175Z" fill="#1A3667"/>
<path d="M339.596 76.6645V22.3148H348.689V31.5124H348.898C350.727 25.2413 355.431 21.2696 361.545 21.2696C363.113 21.2696 364.472 21.5309 365.203 21.6354V30.4672C364.472 30.2059 362.538 29.9446 360.343 29.9446C353.288 29.9446 348.689 34.857 348.689 43.114V76.6645H339.596Z" fill="#1A3667"/>
</svg>
