<svg width="74" height="74" viewBox="0 0 74 74" fill="none" xmlns="http://www.w3.org/2000/svg">
<path d="M74 37C74 57.4345 57.4345 74 37 74C16.5655 74 0 57.4345 0 37C0 16.5655 16.5655 0 37 0C57.4345 0 74 16.5655 74 37ZM5.18 37C5.18 54.5737 19.4263 68.82 37 68.82C54.5737 68.82 68.82 54.5737 68.82 37C68.82 19.4263 54.5737 5.18 37 5.18C19.4263 5.18 5.18 19.4263 5.18 37Z" fill="#B4B4B5"/>
<path d="M37 0C43.2323 7.43188e-08 49.3635 1.57424 54.8249 4.57665C60.2862 7.57906 64.9007 11.9123 68.2401 17.1744C71.5795 22.4365 73.5357 28.4568 73.927 34.6767C74.3183 40.8967 73.1322 47.1147 70.4786 52.7538L65.7916 50.5483C68.0737 45.6987 69.0938 40.3512 68.7572 35.002C68.4207 29.6528 66.7384 24.4754 63.8665 19.95C60.9946 15.4246 57.0262 11.698 52.3294 9.11592C47.6326 6.53385 42.3597 5.18 37 5.18V0Z" fill="#B6985E"/>
</svg>
