<svg width="30" height="30" viewBox="20 20 24 24" fill="none" xmlns="http://www.w3.org/2000/svg">
<path d="M22.4201 32.7132C22.2839 32.4975 22.2158 32.3897 22.1777 32.2234C22.1491 32.0985 22.1491 31.9015 22.1777 31.7766C22.2158 31.6103 22.2839 31.5025 22.4201 31.2868C23.5455 29.5048 26.8954 25 32.0004 25C37.1054 25 40.4553 29.5048 41.5807 31.2868C41.7169 31.5025 41.785 31.6103 41.8231 31.7766C41.8517 31.9015 41.8517 32.0985 41.8231 32.2234C41.785 32.3897 41.7169 32.4975 41.5807 32.7132C40.4553 34.4952 37.1054 39 32.0004 39C26.8954 39 23.5455 34.4952 22.4201 32.7132Z" stroke="#F2DCB1" stroke-width="2" stroke-linecap="round" stroke-linejoin="round"/>
<path d="M32.0004 35C33.6573 35 35.0004 33.6569 35.0004 32C35.0004 30.3431 33.6573 29 32.0004 29C30.3435 29 29.0004 30.3431 29.0004 32C29.0004 33.6569 30.3435 35 32.0004 35Z" stroke="#F2DCB1" stroke-width="2" stroke-linecap="round" stroke-linejoin="round"/>
</svg>
