<svg width="152" height="23" viewBox="0 0 152 23" fill="none" xmlns="http://www.w3.org/2000/svg">
<path d="M10.3251 1.82526C10.5905 1.16456 11.5258 1.16456 11.7911 1.82526L13.7332 6.66161C13.8462 6.94296 14.1103 7.13482 14.4128 7.15533L19.6126 7.5079C20.3229 7.55607 20.6119 8.4456 20.0656 8.9021L16.0661 12.2437C15.8334 12.4381 15.7325 12.7485 15.8065 13.0425L17.078 18.0968C17.2517 18.7873 16.495 19.337 15.892 18.9585L11.4781 16.1873C11.2213 16.0261 10.8949 16.0261 10.6381 16.1873L6.22416 18.9585C5.62117 19.337 4.86449 18.7873 5.03819 18.0968L6.3097 13.0425C6.38367 12.7485 6.2828 12.4381 6.05014 12.2437L2.05064 8.9021C1.50427 8.4456 1.7933 7.55607 2.50365 7.5079L7.70345 7.15533C8.00595 7.13482 8.27 6.94296 8.38299 6.66161L10.3251 1.82526Z" fill="#E4CD5B"/>
<path d="M32.9423 1.82526C33.2076 1.16456 34.1429 1.16456 34.4083 1.82526L36.3504 6.66161C36.4634 6.94296 36.7275 7.13482 37.0299 7.15533L42.2298 7.5079C42.9401 7.55607 43.2291 8.4456 42.6828 8.9021L38.6833 12.2437C38.4506 12.4381 38.3497 12.7485 38.4237 13.0425L39.6952 18.0968C39.8689 18.7873 39.1122 19.337 38.5092 18.9585L34.0953 16.1873C33.8385 16.0261 33.5121 16.0261 33.2553 16.1873L28.8413 18.9585C28.2384 19.337 27.4817 18.7873 27.6554 18.0968L28.9269 13.0425C29.0009 12.7485 28.9 12.4381 28.6673 12.2437L24.6678 8.9021C24.1215 8.4456 24.4105 7.55607 25.1208 7.5079L30.3206 7.15533C30.6231 7.13482 30.8872 6.94296 31.0002 6.66161L32.9423 1.82526Z" fill="#E4CD5B"/>
<path d="M55.5576 1.82526C55.8229 1.16456 56.7582 1.16456 57.0235 1.82526L58.9656 6.66161C59.0786 6.94296 59.3427 7.13482 59.6452 7.15533L64.845 7.5079C65.5553 7.55607 65.8444 8.4456 65.298 8.9021L61.2985 12.2437C61.0658 12.4381 60.965 12.7485 61.0389 13.0425L62.3104 18.0968C62.4841 18.7873 61.7275 19.337 61.1245 18.9585L56.7105 16.1873C56.4537 16.0261 56.1273 16.0261 55.8705 16.1873L51.4566 18.9585C50.8536 19.337 50.0969 18.7873 50.2706 18.0968L51.5421 13.0425C51.6161 12.7485 51.5152 12.4381 51.2826 12.2437L47.2831 8.9021C46.7367 8.4456 47.0257 7.55607 47.7361 7.5079L52.9359 7.15533C53.2384 7.13482 53.5024 6.94296 53.6154 6.66161L55.5576 1.82526Z" fill="#E4CD5B"/>
<path d="M78.1728 1.82526C78.4381 1.16456 79.3734 1.16456 79.6387 1.82526L81.5809 6.66161C81.6939 6.94296 81.9579 7.13482 82.2604 7.15533L87.4602 7.5079C88.1706 7.55607 88.4596 8.4456 87.9132 8.9021L83.9137 12.2437C83.6811 12.4381 83.5802 12.7485 83.6542 13.0425L84.9257 18.0968C85.0994 18.7873 84.3427 19.337 83.7397 18.9585L79.3257 16.1873C79.069 16.0261 78.7426 16.0261 78.4858 16.1873L74.0718 18.9585C73.4688 19.337 72.7121 18.7873 72.8858 18.0968L74.1574 13.0425C74.2313 12.7485 74.1305 12.4381 73.8978 12.2437L69.8983 8.9021C69.3519 8.4456 69.641 7.55607 70.3513 7.5079L75.5511 7.15533C75.8536 7.13482 76.1177 6.94296 76.2306 6.66161L78.1728 1.82526Z" fill="#E4CD5B"/>
<path d="M100.79 1.82526C101.055 1.16456 101.991 1.16456 102.256 1.82526L104.198 6.66161C104.311 6.94296 104.575 7.13482 104.878 7.15533L110.077 7.5079C110.788 7.55607 111.077 8.4456 110.53 8.9021L106.531 12.2437C106.298 12.4381 106.197 12.7485 106.271 13.0425L107.543 18.0968C107.717 18.7873 106.96 19.337 106.357 18.9585L101.943 16.1873C101.686 16.0261 101.36 16.0261 101.103 16.1873L96.689 18.9585C96.086 19.337 95.3293 18.7873 95.503 18.0968L96.7745 13.0425C96.8485 12.7485 96.7476 12.4381 96.515 12.2437L92.5155 8.9021C91.9691 8.4456 92.2581 7.55607 92.9685 7.5079L98.1683 7.15533C98.4708 7.13482 98.7348 6.94296 98.8478 6.66161L100.79 1.82526Z" fill="#E4CD5B"/>
<path d="M125.812 19.3286C122.572 19.3286 120.369 17.3956 120.164 14.8146L120.153 14.6742H122.766L122.777 14.7498C123.004 16.0565 124.192 17.0608 125.833 17.0608C127.691 17.0608 128.976 15.7865 128.976 13.9615V13.9399C128.976 12.1581 127.669 10.8838 125.844 10.8838C124.959 10.8838 124.192 11.1538 123.598 11.6505C123.306 11.8881 123.047 12.1905 122.864 12.536H120.434L121.179 3.47573H130.747V5.75431H123.404L122.972 10.4518H123.026C123.706 9.40435 124.991 8.78881 126.557 8.78881C129.527 8.78881 131.665 10.9378 131.665 13.8967V13.9183C131.665 17.1256 129.257 19.3286 125.812 19.3286ZM134.894 19.2314C134.019 19.2314 133.328 18.5402 133.328 17.6655C133.328 16.8016 134.019 16.1105 134.894 16.1105C135.768 16.1105 136.449 16.8016 136.449 17.6655C136.449 18.5402 135.768 19.2314 134.894 19.2314ZM144.289 19.3286C140.466 19.3286 138.166 16.2293 138.166 11.2726V11.251C138.166 6.29425 140.466 3.20576 144.289 3.20576C148.101 3.20576 150.412 6.29425 150.412 11.251V11.2726C150.412 16.2293 148.101 19.3286 144.289 19.3286ZM144.289 17.05C146.384 17.05 147.604 14.8686 147.604 11.2726V11.251C147.604 7.65492 146.384 5.49513 144.289 5.49513C142.183 5.49513 140.973 7.65492 140.973 11.251V11.2726C140.973 14.8686 142.183 17.05 144.289 17.05Z" fill="#7C848C"/>
</svg>
