<svg width="30" height="30" viewBox="20 20 24 24" fill="none" xmlns="http://www.w3.org/2000/svg">
<path d="M32 35L29 32M32 35C33.3968 34.4687 34.7369 33.7987 36 33M32 35V40C32 40 35.03 39.45 36 38C37.08 36.38 36 33 36 33M29 32C29.5321 30.6194 30.2022 29.2961 31 28.05C32.1652 26.187 33.7876 24.6531 35.713 23.5941C37.6384 22.5351 39.8027 21.9864 42 22C42 24.72 41.22 29.5 36 33M29 32H24C24 32 24.55 28.97 26 28C27.62 26.92 31 28 31 28M24.5 36.5C23 37.76 22.5 41.5 22.5 41.5C22.5 41.5 26.24 41 27.5 39.5C28.21 38.66 28.2 37.37 27.41 36.59C27.0213 36.219 26.5093 36.0046 25.9722 35.988C25.4352 35.9714 24.9109 36.1537 24.5 36.5Z" stroke="#F2DCB1" stroke-width="2" stroke-linecap="round" stroke-linejoin="round"/>
</svg>
